<svg width="500" height="360" viewBox="0 0 500 360" fill="none" xmlns="http://www.w3.org/2000/svg">
<path d="M249.936 312.06L196.436 196.858H326.078L485.951 298.272" fill="white"/>
<path d="M249.936 312.06L196.436 196.858H326.078L485.951 298.272" stroke="#263238" stroke-width="0.75" stroke-linecap="round" stroke-linejoin="round"/>
<path d="M236.665 307.525L196.436 204.542V196.858L253.348 317.429L236.665 307.525Z" fill="#263238" stroke="#263238" stroke-width="0.75" stroke-linecap="round" stroke-linejoin="round"/>
<path d="M270.559 201.623L325.702 263.784L258.767 278.778L220.734 209.295L270.559 201.623Z" fill="white" stroke="#263238" stroke-width="0.75" stroke-linecap="round" stroke-linejoin="round"/>
<path d="M258.767 278.778V280.612L324.56 267.813L325.702 263.784L258.767 278.778Z" fill="#263238" stroke="#263238" stroke-width="0.75" stroke-linecap="round" stroke-linejoin="round"/>
<path d="M268.476 223.988L271.299 227.993L278.474 226.123L275.488 222.215L268.476 223.988Z" fill="#263238"/>
<path d="M295.634 248.488L292.222 244.049L284.068 246.16L287.255 250.695L295.634 248.488Z" fill="#263238"/>
<path d="M262.618 215.64L264.713 218.632L271.462 216.979L269.342 214.205L262.618 215.64Z" fill="#263238"/>
<path d="M275.614 234.133L279.477 239.634L287.368 237.716L283.103 232.155L275.614 234.133Z" fill="#263238"/>
<path d="M296.048 236.714L289.287 238.367L292.674 242.782L299.56 240.997L296.048 236.714Z" fill="#263238"/>
<path d="M280.167 240.599L283.391 245.207L291.495 243.096L288.095 238.657L280.167 240.599Z" fill="#263238"/>
<path d="M254.979 217.269L257.061 220.502L263.534 218.909L261.414 215.893L254.979 217.269Z" fill="#263238"/>
<path d="M271.964 228.946L274.949 233.18L282.375 231.201L279.201 227.064L271.964 228.946Z" fill="#263238"/>
<path d="M265.391 219.585L267.799 223.023L274.748 221.262L272.189 217.92L265.391 219.585Z" fill="#263238"/>
<path d="M250.789 227.341L248.682 223.686L240.992 225.568L243.137 229.283L250.789 227.341Z" fill="#263238"/>
<path d="M239.738 236.184L245.019 234.82L242.573 230.574L237.38 231.889L239.738 236.184Z" fill="#263238"/>
<path d="M252.696 213.722L254.339 216.279L260.724 214.916L259.006 212.48L252.696 213.722Z" fill="#263238"/>
<path d="M248.105 222.685L246.073 219.163L238.258 220.815L240.415 224.567L248.105 222.685Z" fill="#263238"/>
<path d="M245.107 215.206L246.662 217.908L253.16 216.533L251.492 213.951L245.107 215.206Z" fill="#263238"/>
<path d="M234.181 226.099L239.274 224.844L237.091 221.069L232.011 222.142L234.181 226.099Z" fill="#263238"/>
<path d="M236.05 216.991L237.681 219.814L245.496 218.161L243.928 215.435L236.05 216.991Z" fill="#263238"/>
<path d="M260.599 225.99L263.233 230.08L270.132 228.294L267.31 224.289L260.599 225.99Z" fill="#263238"/>
<path d="M278.311 239.923L274.46 234.447L267.272 236.353L270.759 241.769L278.311 239.923Z" fill="#263238"/>
<path d="M247.239 218.909L249.246 222.408L255.895 220.779L253.8 217.522L247.239 218.909Z" fill="#263238"/>
<path d="M248.745 241.262L243.326 242.698L246.135 247.8L251.718 246.437L248.745 241.262Z" fill="#263238"/>
<path d="M263.86 231.057L266.645 235.375L273.782 233.494L270.809 229.247L263.86 231.057Z" fill="#263238"/>
<path d="M258.817 225.315L256.522 221.756L249.823 223.397L251.931 227.064L258.817 225.315Z" fill="#263238"/>
<path d="M271.399 263.133L263.735 265.014L266.469 269.755L274.159 267.934L271.399 263.133Z" fill="#263238"/>
<path d="M259.532 211.261L266.093 209.97L262.568 205.362L256.108 206.388L259.532 211.261Z" fill="#263238"/>
<path d="M243.351 214.434L240.177 208.921L232.136 210.2L235.473 215.99L243.351 214.434Z" fill="#263238"/>
<path d="M253.787 232.541L251.366 228.33L243.714 230.273L246.161 234.519L253.787 232.541Z" fill="#263238"/>
<path d="M273.318 247.824L270.232 243.035L262.255 244.99L265.115 249.96L273.318 247.824Z" fill="#263238"/>
<path d="M269.605 242.058L266.118 236.654L258.604 238.644L261.677 243.988L269.605 242.058Z" fill="#263238"/>
<path d="M282.225 245.508L278.988 240.888L271.387 242.746L274.472 247.523L282.225 245.508Z" fill="#263238"/>
<path d="M262.079 230.381L259.445 226.28L252.495 228.053L254.916 232.239L262.079 230.381Z" fill="#263238"/>
<path d="M257.688 221.479L259.972 225.013L266.632 223.324L264.211 219.874L257.688 221.479Z" fill="#263238"/>
<path d="M265.491 235.689L262.706 231.358L255.481 233.228L258.04 237.667L265.491 235.689Z" fill="#263238"/>
<path d="M286.101 251.009L282.902 246.473L275.1 248.5L278.072 253.12L286.101 251.009Z" fill="#263238"/>
<path d="M280.945 259.658L277.546 254.387L268.966 256.655L271.976 261.854L280.945 259.658Z" fill="#263238"/>
<path d="M255.23 252.529L252.295 247.426L246.687 248.802L249.547 254.013L255.23 252.529Z" fill="#263238"/>
<path d="M245.596 235.81L240.29 237.185L242.786 241.708L248.168 240.285L245.596 235.81Z" fill="#263238"/>
<path d="M270.822 262.143L267.837 256.944L260.235 258.947L263.158 264.013L270.822 262.143Z" fill="#263238"/>
<path d="M256.898 237.957L254.352 233.53L246.725 235.508L249.309 239.983L256.898 237.957Z" fill="#263238"/>
<path d="M260.222 212.238L261.928 214.663L268.602 213.24L266.833 210.936L260.222 212.238Z" fill="#263238"/>
<path d="M231.459 221.141L236.514 220.067L234.884 217.22L229.841 218.21L231.459 221.141Z" fill="#263238"/>
<path d="M252.044 212.721L258.316 211.49L254.866 206.581L248.72 207.558L252.044 212.721Z" fill="#263238"/>
<path d="M244.53 214.205L250.865 212.962L247.503 207.751L241.369 208.728L244.53 214.205Z" fill="#263238"/>
<path d="M242.009 229.585L239.851 225.845L234.733 227.1L236.828 230.888L242.009 229.585Z" fill="#263238"/>
<path d="M267.322 209.729L272.992 208.607L269.43 204.277L263.823 205.157L267.322 209.729Z" fill="#263238"/>
<path d="M234.294 216.219L230.932 210.381L225.965 211.177L229.289 217.196L234.294 216.219Z" fill="#263238"/>
<path d="M262.593 265.292L256.572 266.764L259.181 271.492L265.328 270.033L262.593 265.292Z" fill="#263238"/>
<path d="M291.206 258.271L282.726 260.346L285.825 265.159L294.58 263.072L291.206 258.271Z" fill="#263238"/>
<path d="M281.572 260.636L272.541 262.843L275.313 267.656L284.658 265.437L281.572 260.636Z" fill="#263238"/>
<path d="M301.241 255.81L292.385 257.982L295.76 262.795L304.929 260.611L301.241 255.81Z" fill="#263238"/>
<path d="M309.959 253.675L302.433 255.521L306.133 260.334L313.911 258.476L309.959 253.675Z" fill="#263238"/>
<path d="M259.106 259.248L253.273 260.78L256.02 265.774L262.016 264.303L259.106 259.248Z" fill="#263238"/>
<path d="M276.918 253.422L273.946 248.802L265.692 250.949L268.401 255.665L276.918 253.422Z" fill="#263238"/>
<path d="M290.529 257.306L286.765 251.962L278.7 254.085L282.099 259.369L290.529 257.306Z" fill="#263238"/>
<path d="M267.272 255.955L264.55 251.238L256.936 253.229L259.67 257.957L267.272 255.955Z" fill="#263238"/>
<path d="M252.734 259.791L258.541 258.259L255.807 253.518L250.099 255.002L252.734 259.791Z" fill="#263238"/>
<path d="M260.536 244.278L257.475 238.946L249.874 240.961L252.859 246.148L260.536 244.278Z" fill="#263238"/>
<path d="M300.514 254.857L296.362 249.441L287.932 251.661L291.708 257.017L300.514 254.857Z" fill="#263238"/>
<path d="M263.986 250.249L261.113 245.267L253.436 247.149L256.371 252.24L263.986 250.249Z" fill="#263238"/>
<path d="M284.282 231.841L288.559 237.414L295.27 235.773L290.654 230.152L284.282 231.841Z" fill="#263238"/>
<path d="M275.94 220.96L281.886 219.452L279.214 216.207L273.394 217.631L275.94 220.96Z" fill="#263238"/>
<path d="M270.571 213.951L272.653 216.678L278.449 215.266L276.354 212.721L270.571 213.951Z" fill="#263238"/>
<path d="M309.182 252.734L304.691 247.245L297.541 249.127L301.705 254.568L309.182 252.734Z" fill="#263238"/>
<path d="M276.668 221.913L279.666 225.809L285.787 224.217L282.651 220.393L276.668 221.913Z" fill="#263238"/>
<path d="M293.401 243.735L296.813 248.186L303.926 246.317L300.325 241.938L293.401 243.735Z" fill="#263238"/>
<path d="M269.819 212.986L275.576 211.768L273.782 209.572L268.075 210.694L269.819 212.986Z" fill="#263238"/>
<path d="M283.554 230.9L289.889 229.211L286.565 225.158L280.393 226.762L283.554 230.9Z" fill="#263238"/>
<path d="M334.445 208.571V218.439C333.403 219.408 332.255 220.265 331.021 220.996C329.126 222.094 313.534 224.615 313.534 224.615L333.304 245.472C333.304 245.472 351.43 243.566 356.51 242.179C361.829 240.707 360.687 222.058 360.687 222.058L334.445 208.571Z" fill="white" stroke="#263238" stroke-width="0.75" stroke-linecap="round" stroke-linejoin="round"/>
<path d="M334.445 208.571V218.439C334.445 218.439 334.169 218.704 333.718 219.09L356.836 242.082C361.779 239.947 360.687 222.094 360.687 222.094L334.445 208.571Z" fill="#263238" stroke="#263238" stroke-width="0.75" stroke-linecap="round" stroke-linejoin="round"/>
<path d="M299.46 82.3911V186.99L382.363 249.887V88.2417L299.46 82.3911Z" fill="white" stroke="#263238" stroke-width="0.75" stroke-linecap="round" stroke-linejoin="round"/>
<path d="M305.167 87.8798V176.013L374.762 217.341V93.7304L305.167 87.8798Z" fill="#3B82F6" stroke="#263238" stroke-width="0.75" stroke-linecap="round" stroke-linejoin="round"/>
<path d="M390.73 88.2417H382.363V249.923H390.73V88.2417Z" fill="#263238" stroke="#263238" stroke-width="0.75" stroke-linecap="round" stroke-linejoin="round"/>
<path d="M309.733 93.3685L310.11 171.996L368.289 203.806V106.445L328.361 100.631L325.702 95.19L309.733 93.3685Z" fill="white" stroke="#263238" stroke-width="0.75" stroke-linecap="round" stroke-linejoin="round"/>
<path d="M313.534 102.874V169.8L364.877 196.134V111.656L313.534 102.874Z" fill="#3B82F6" stroke="#263238" stroke-width="0.75" stroke-linecap="round" stroke-linejoin="round"/>
<path d="M343.562 168.198C350.806 165.859 353.961 156.18 350.61 146.58C347.258 136.98 338.668 131.094 331.424 133.433C324.18 135.772 321.025 145.451 324.377 155.051C327.728 164.651 336.318 170.537 343.562 168.198Z" fill="#263238"/>
<path d="M339.011 151.911L343.891 146.712C344.22 146.248 344.389 145.697 344.373 145.136C344.357 144.575 344.158 144.033 343.803 143.587C343.075 142.586 341.934 142.381 341.294 143.093L336.603 148.099L331.899 140.861C331.221 139.811 330.08 139.486 329.39 140.137C329.026 140.569 328.82 141.104 328.802 141.659C328.783 142.214 328.955 142.76 329.29 143.213L334.169 150.753L329.202 155.928C328.873 156.392 328.705 156.944 328.723 157.506C328.741 158.067 328.944 158.609 329.302 159.052C329.588 159.488 330.037 159.803 330.557 159.933C330.782 159.987 331.019 159.979 331.241 159.911C331.462 159.843 331.66 159.717 331.811 159.547L336.515 154.54L341.206 161.778C341.495 162.27 341.972 162.634 342.536 162.792C342.753 162.857 342.984 162.865 343.205 162.814C343.426 162.763 343.628 162.655 343.79 162.502C344.15 162.068 344.353 161.533 344.369 160.978C344.385 160.423 344.213 159.878 343.878 159.426L339.011 151.911Z" fill="white"/>
<path d="M322.654 125.553L351.405 133.671" stroke="#263238" stroke-width="0.75" stroke-linecap="round" stroke-linejoin="round"/>
<path d="M321.512 117.869L358.78 127.869" stroke="#263238" stroke-width="0.75" stroke-linecap="round" stroke-linejoin="round"/>
<path d="M347.202 290.202C347.202 290.202 329.026 291.819 322.303 296.994C315.579 302.169 320.622 304.762 327.007 306.379C333.392 307.995 362.004 305.402 365.705 301.843C369.405 298.284 365.705 289.551 347.202 290.202Z" fill="white" stroke="#263238" stroke-width="0.75" stroke-linecap="round" stroke-linejoin="round"/>
<path d="M365.705 301.891C366.42 301.205 366.863 300.301 366.959 299.334C358.818 298.948 348.143 301.216 338.447 304.159C335.173 305.161 331.849 306.002 328.487 306.68C336.941 307.657 362.243 305.172 365.705 301.891Z" fill="#263238" stroke="#263238" stroke-width="0.75" stroke-linecap="round" stroke-linejoin="round"/>
<path d="M282.764 98.2179L296.048 104.865" stroke="#263238" stroke-linecap="round" stroke-linejoin="round"/>
<path d="M275.137 94.4059L279.089 96.3843" stroke="#263238" stroke-linecap="round" stroke-linejoin="round"/>
<path d="M285.687 131.705L290.19 132.2" stroke="#263238" stroke-linecap="round" stroke-linejoin="round"/>
<path d="M268.451 129.787L280.594 131.138" stroke="#263238" stroke-linecap="round" stroke-linejoin="round"/>
<path d="M288.522 162.768L273.469 166.785" stroke="#263238" stroke-linecap="round" stroke-linejoin="round"/>
<path d="M155.706 294.509C155.706 294.509 201.341 275.123 225.877 273.664L243.777 311.699H108.578L155.706 294.509Z" fill="#263238" stroke="#263238" stroke-width="0.75" stroke-linecap="round" stroke-linejoin="round"/>
<path d="M211.251 65.3339C211.251 65.3339 243.376 102.03 250.137 108.761C256.898 115.492 257.149 120.378 254.966 123.394C252.784 126.409 236.376 131.995 219.467 142.441C202.558 152.888 154.489 179.837 154.012 180.778C153.536 181.719 148.932 148.207 148.932 148.207L229.364 116.385L229.126 114.057L203.034 67.6017L211.251 65.3339Z" fill="white"/>
<path d="M242.172 119.497L204.891 67.1433L203.097 67.65L229.189 114.105L229.427 116.433L148.995 148.256C148.995 148.256 149.083 148.835 149.208 149.812L154.451 161.38L242.172 119.497Z" fill="#3B82F6"/>
<path opacity="0.5" d="M242.172 119.497L204.891 67.1433L203.097 67.65L229.189 114.105L229.427 116.433L148.995 148.256C148.995 148.256 149.083 148.835 149.208 149.812L154.451 161.38L242.172 119.497Z" fill="white"/>
<path d="M211.251 65.3339C211.251 65.3339 243.376 102.03 250.137 108.761C256.898 115.492 257.149 120.378 254.966 123.394C252.784 126.409 236.376 131.995 219.467 142.441C202.558 152.888 154.489 179.837 154.012 180.778C153.536 181.719 148.932 148.207 148.932 148.207L229.364 116.385L229.126 114.057L203.034 67.6017L211.251 65.3339Z" stroke="#263238" stroke-width="0.75" stroke-linecap="round" stroke-linejoin="round"/>
<path d="M185.648 49.302C185.648 49.302 181.785 46.045 179.853 49.302C177.921 52.5591 177.683 57.891 178.887 58.3614C180.091 58.8319 184.921 58.1322 185.648 56.7329C186.376 55.3336 185.648 49.302 185.648 49.302Z" fill="white" stroke="#263238" stroke-width="0.75" stroke-linecap="round" stroke-linejoin="round"/>
<path d="M192.41 47.6735C192.41 47.6735 188.308 43.4997 185.648 45.1161C182.989 46.7326 183.717 55.5748 184.682 56.2745C185.648 56.9741 191.444 55.0682 192.209 53.9463C192.974 52.8244 192.41 47.6735 192.41 47.6735Z" fill="white" stroke="#263238" stroke-width="0.75" stroke-linecap="round" stroke-linejoin="round"/>
<path d="M201.592 47.9027C201.592 47.9027 197.967 43.0775 194.592 43.0775C191.218 43.0775 188.784 54.6942 190.001 55.6231C191.218 56.5519 199.171 55.3939 199.66 54.6942C200.435 52.4666 201.079 50.1993 201.592 47.9027V47.9027Z" fill="white" stroke="#263238" stroke-width="0.75" stroke-linecap="round" stroke-linejoin="round"/>
<path d="M208.654 55.804C208.654 54.4168 207.939 42.3296 203.636 43.0292C199.334 43.7289 194.705 53.4879 194.943 55.0923C195.182 56.6967 208.654 55.804 208.654 55.804Z" fill="white" stroke="#263238" stroke-width="0.75" stroke-linecap="round" stroke-linejoin="round"/>
<path d="M229.364 116.433C229.364 116.433 241.682 120.848 246.273 120.607Z" fill="white"/>
<path d="M229.364 116.433C229.364 116.433 241.682 120.848 246.273 120.607" stroke="#263238" stroke-width="0.75" stroke-linecap="round" stroke-linejoin="round"/>
<path d="M128.071 312.012C141.192 309.889 158.001 301.216 163.006 290.299C159.243 271.372 154.489 244.712 154.489 228.403C154.489 200.996 162.016 185.434 158.591 166.881C155.166 148.328 147.966 136.229 140.239 131.343C140.239 131.343 128.41 134.359 116.33 145.276C104.25 156.193 93.6257 174.963 89.4862 192.853C85.3467 210.743 79.8273 265.787 79.8273 280.19C79.8273 294.593 78.7486 312.471 78.7486 312.471C93.2118 312.471 107.675 312.471 122.138 312.471C124.126 312.489 126.112 312.336 128.071 312.012V312.012Z" fill="white"/>
<path d="M163.006 290.287C155.656 296.318 122.552 308.031 117.723 309.069C112.893 310.106 115.578 300.287 123.092 290.48C130.605 280.672 113.96 294.099 111.275 295.124C108.591 296.149 112.354 276.016 112.354 266.172C112.354 256.329 122.025 172.708 122.025 172.708L140.277 140.68L146.549 137.061C144.797 134.821 142.679 132.87 140.277 131.283C140.277 131.283 128.448 134.299 116.368 145.216C104.288 156.133 93.6257 174.963 89.4862 192.853C85.3467 210.742 79.8273 265.786 79.8273 280.19C79.8273 294.593 78.7486 312.471 78.7486 312.471C93.2118 312.471 107.675 312.471 122.138 312.471C124.119 312.472 126.097 312.302 128.046 311.964C141.193 309.889 158.001 301.216 163.006 290.287Z" fill="#3B82F6"/>
<path opacity="0.5" d="M163.006 290.287C155.656 296.318 122.552 308.031 117.723 309.069C112.893 310.106 115.578 300.287 123.092 290.48C130.605 280.672 113.96 294.099 111.275 295.124C108.591 296.149 112.354 276.016 112.354 266.172C112.354 256.329 122.025 172.708 122.025 172.708L140.277 140.68L146.549 137.061C144.797 134.821 142.679 132.87 140.277 131.283C140.277 131.283 128.448 134.299 116.368 145.216C104.288 156.133 93.6257 174.963 89.4862 192.853C85.3467 210.742 79.8273 265.786 79.8273 280.19C79.8273 294.593 78.7486 312.471 78.7486 312.471C93.2118 312.471 107.675 312.471 122.138 312.471C124.119 312.472 126.097 312.302 128.046 311.964C141.193 309.889 158.001 301.216 163.006 290.287Z" fill="white"/>
<path d="M128.071 312.012C141.192 309.889 158.001 301.216 163.006 290.299C159.243 271.372 154.489 244.712 154.489 228.403C154.489 200.996 162.016 185.434 158.591 166.881C155.166 148.328 147.966 136.229 140.239 131.343C140.239 131.343 128.41 134.359 116.33 145.276C104.25 156.193 93.6257 174.963 89.4862 192.853C85.3467 210.743 79.8273 265.787 79.8273 280.19C79.8273 294.593 78.7486 312.471 78.7486 312.471C93.2118 312.471 107.675 312.471 122.138 312.471C124.126 312.489 126.112 312.336 128.071 312.012V312.012Z" stroke="#263238" stroke-width="0.75" stroke-linecap="round" stroke-linejoin="round"/>
<path d="M139.537 135.614L160.284 171.948L161.401 191.876C161.401 191.876 167.184 177.665 164.612 168.389C162.041 159.112 139.537 135.614 139.537 135.614Z" fill="#263238" stroke="#263238" stroke-width="0.75" stroke-linecap="round" stroke-linejoin="round"/>
<path d="M161.388 191.888L155.606 275.98L162.041 293.29L166.544 258.657L162.68 189.403L161.388 191.888Z" fill="#263238" stroke="#263238" stroke-width="0.75" stroke-linecap="round" stroke-linejoin="round"/>
<path d="M155.693 101.559C155.693 101.559 156.421 110.619 157.148 115.034C157.876 119.449 146.524 131.802 146.524 131.802L162.944 155.723L181.547 141.79C181.547 141.79 207.889 139.932 210.285 137.833C212.681 135.734 212.706 112.754 212.706 112.754L218.978 109.268C218.978 109.268 213.182 85.1415 211.74 79.7613L210.285 74.4295C210.285 74.4295 218.739 71.6308 216.808 63.5727C214.876 55.5145 202.558 51.5096 190.239 53.3432C177.921 55.1767 174.785 59.616 174.785 59.616C174.785 59.616 157.387 59.3868 147.49 67.2881C137.592 75.1894 143.626 87.723 146.762 92.1381C149.431 95.5367 152.42 98.6906 155.693 101.559V101.559Z" fill="white"/>
<path d="M184.82 134.009C179.991 128.327 184.82 106.638 188.584 95.7932C192.347 84.9485 183.215 80.3042 183.215 80.3042L210.636 75.7564L210.26 74.3933C212.114 73.6963 213.764 72.5741 215.064 71.1242L216.544 62.7403C214.035 55.1164 202.156 51.4493 190.202 53.2467C177.884 55.1044 174.748 59.5195 174.748 59.5195C174.748 59.5195 157.349 59.2903 147.452 67.1916C137.555 75.093 143.588 87.6265 146.724 92.0416C149.388 95.4737 152.378 98.6601 155.656 101.559C155.656 101.559 156.383 110.619 157.111 115.034C157.838 119.449 146.524 131.802 146.524 131.802L162.944 155.723L181.546 141.79C181.546 141.79 201.617 140.366 208.34 138.617L210.285 137.833C210.285 137.833 189.675 139.691 184.82 134.009Z" fill="#3B82F6"/>
<path opacity="0.5" d="M184.82 134.009C179.991 128.327 184.82 106.638 188.584 95.7932C192.347 84.9485 183.215 80.3042 183.215 80.3042L210.636 75.7564L210.26 74.3933C212.114 73.6963 213.764 72.5741 215.064 71.1242L216.544 62.7403C214.035 55.1164 202.156 51.4493 190.202 53.2467C177.884 55.1044 174.748 59.5195 174.748 59.5195C174.748 59.5195 157.349 59.2903 147.452 67.1916C137.555 75.093 143.588 87.6265 146.724 92.0416C149.388 95.4737 152.378 98.6601 155.656 101.559C155.656 101.559 156.383 110.619 157.111 115.034C157.838 119.449 146.524 131.802 146.524 131.802L162.944 155.723L181.546 141.79C181.546 141.79 201.617 140.366 208.34 138.617L210.285 137.833C210.285 137.833 189.675 139.691 184.82 134.009Z" fill="white"/>
<path d="M198.932 90.8835C198.932 90.8835 198.932 90.5216 198.932 89.9547C198.932 88.1573 199.246 84.273 202.37 83.2114C206.471 81.8242 209.896 85.5396 209.896 85.5396L210.134 89.255C209.544 88.5456 208.768 87.9997 207.887 87.6733C207.005 87.3469 206.049 87.2516 205.117 87.3973C202.716 87.8824 200.545 89.1062 198.932 90.8835V90.8835Z" fill="#263238"/>
<path d="M205.945 98.3144C205.945 100.232 205.393 101.801 204.69 101.801C203.988 101.801 203.436 100.232 203.436 98.3144C203.436 96.3964 203.975 94.8282 204.69 94.8282C205.405 94.8282 205.945 96.3843 205.945 98.3144Z" fill="#263238"/>
<path d="M198.33 122.646C196.988 123.985 195.194 124.419 194.329 123.623C193.463 122.827 193.852 121.077 195.194 119.738C196.537 118.399 198.318 117.965 199.183 118.761C200.049 119.558 199.673 121.307 198.33 122.646Z" fill="#263238"/>
<path d="M155.693 101.559C155.693 101.559 156.421 110.619 157.148 115.034C157.876 119.449 146.524 131.802 146.524 131.802L162.944 155.723L181.547 141.79C181.547 141.79 207.889 139.932 210.285 137.833C212.681 135.734 212.706 112.754 212.706 112.754L218.978 109.268C218.978 109.268 213.182 85.1415 211.74 79.7613L210.285 74.4295C210.285 74.4295 218.739 71.6308 216.808 63.5727C214.876 55.5145 202.558 51.5096 190.239 53.3432C177.921 55.1767 174.785 59.616 174.785 59.616C174.785 59.616 157.387 59.3868 147.49 67.2881C137.592 75.1894 143.626 87.723 146.762 92.1381C149.431 95.5367 152.42 98.6906 155.693 101.559V101.559Z" stroke="#263238" stroke-width="0.75" stroke-linecap="round" stroke-linejoin="round"/>
<path d="M178.887 78.7963C183.24 76.0097 210.247 74.3933 210.247 74.3933C210.247 74.3933 218.702 71.5946 216.77 63.5365C214.838 55.4783 202.52 51.4734 190.202 53.307C177.884 55.1405 174.748 59.5798 174.748 59.5798C174.748 59.5798 157.349 59.3506 147.452 67.2519C137.555 75.1532 143.588 87.6868 146.724 92.1019C149.388 95.534 152.378 98.7203 155.656 101.62C155.656 101.62 156.057 106.59 156.559 110.969L164.085 113.007L172.302 108.821L180.518 106.964C180.518 106.964 174.472 102.549 177.859 98.3747C181.245 94.2009 187.517 92.8015 187.756 89.5445C187.994 86.2875 174.534 81.5829 178.887 78.7963Z" fill="#263238" stroke="#263238" stroke-width="0.75" stroke-linecap="round" stroke-linejoin="round"/>
<path d="M205.255 65.2977C205.255 65.2977 202.42 60.3035 207.613 61.2083C212.806 62.113 212.806 70.7502 208.554 72.5597C204.301 74.3691 181.17 70.2918 168.413 73.9228C155.656 77.5538 146.699 87.5421 146.699 87.5421" stroke="white" stroke-miterlimit="10" stroke-linecap="round"/>
<path d="M153.787 95.2625C153.787 95.2625 163.709 87.0957 171.725 85.7326C179.74 84.3695 184.005 84.3695 175.036 89.3515C166.067 94.3336 172.201 93.4289 177.871 91.6194" stroke="white" stroke-miterlimit="10" stroke-linecap="round"/>
<path d="M174.534 113.176C174.534 113.176 173.092 98.5436 165.603 98.0852C158.114 97.6268 158.353 108.073 160.585 115.275C162.818 122.477 168.112 124.793 172.414 121.077" fill="#3B82F6"/>
<g opacity="0.5">
<path d="M174.534 113.176C174.534 113.176 173.092 98.5436 165.603 98.0852C158.114 97.6268 158.353 108.073 160.585 115.275C162.818 122.477 168.112 124.793 172.414 121.077" fill="white"/>
<path d="M174.534 113.176C174.534 113.176 173.092 98.5436 165.603 98.0852C158.114 97.6268 158.353 108.073 160.585 115.275C162.818 122.477 168.112 124.793 172.414 121.077" stroke="#263238" stroke-width="0.75" stroke-linecap="round" stroke-linejoin="round"/>
</g>
<path d="M174.534 113.176C174.534 113.176 173.092 98.5436 165.603 98.0852C158.114 97.6268 158.353 108.073 160.585 115.275C162.818 122.477 168.112 124.793 172.414 121.077" stroke="#263238" stroke-width="0.75" stroke-linecap="round" stroke-linejoin="round"/>
<path d="M147.189 122.935L171.348 158.244L160.234 171.948C155.229 162.662 149.667 153.664 143.576 144.999C135.36 133.852 134.394 131.995 134.394 131.995L147.189 122.935Z" fill="white"/>
<path d="M147.189 122.935L134.394 131.995C134.394 131.995 135.109 133.358 140.377 140.632L153.9 132.742L147.189 122.935Z" fill="#3B82F6"/>
<path opacity="0.5" d="M147.189 122.935L134.394 131.995C134.394 131.995 135.109 133.358 140.377 140.632L153.9 132.742L147.189 122.935Z" fill="white"/>
<path d="M147.189 122.935L171.348 158.244L160.234 171.948C155.229 162.662 149.667 153.664 143.576 144.999C135.36 133.852 134.394 131.995 134.394 131.995L147.189 122.935Z" stroke="#263238" stroke-width="0.75" stroke-linecap="round" stroke-linejoin="round"/>
<path d="M209.319 210.742C209.319 210.742 213.182 203.07 213.91 198.197C214.638 193.323 214.876 190.525 217.774 188.209C220.671 185.893 230.092 176.592 231.572 173.106C233.052 169.619 233.98 172.876 234.708 175.663C235.435 178.45 235.185 181.007 232.776 182.636C231.079 183.847 229.538 185.248 228.185 186.809L230.355 188.438C230.355 188.438 260.549 177.521 263.697 176.375C266.846 175.229 269.731 176.133 269.969 178.462C270.207 180.79 269.254 181.019 267.799 181.719C266.344 182.418 250.413 187.75 248.23 188.679L246.06 189.608L247.754 191.236C247.754 191.236 256.447 191.007 260.799 190.778C265.152 190.549 271.663 189.849 272.628 191.236C273.059 191.857 273.224 192.614 273.089 193.349C272.953 194.084 272.528 194.741 271.901 195.181C271.393 195.649 270.782 196.001 270.113 196.21C269.444 196.419 268.734 196.479 268.037 196.387C265.867 196.387 247.264 197.775 247.264 197.775L247.754 200.332C247.754 200.332 267.561 203.348 268.276 204.277C268.991 205.205 269.003 205.676 268.276 207.063C267.548 208.45 267.021 208.463 265.14 208.463C263.258 208.463 247.578 206.134 247.578 206.134C247.578 206.134 255.305 210.32 256.271 211.02C257.237 211.72 260.611 212.226 259.645 213.806C258.679 215.387 258.203 215.893 256.748 215.664C255.293 215.435 244.919 211.02 244.919 211.02C244.919 211.02 234.532 212.407 231.12 212.648C228.609 212.76 226.092 212.68 223.594 212.407L213.935 218.439L209.319 210.742Z" fill="white" stroke="#263238" stroke-width="0.75" stroke-linecap="round" stroke-linejoin="round"/>
<path d="M140.728 200.284C140.728 200.284 133.716 172.177 130.819 165.904C127.921 159.631 111.501 153.841 103.523 167.532C95.5449 181.224 102.795 196.798 105.706 207.944C108.616 219.09 126.955 269.466 129.614 275.775C132.274 282.084 137.141 280.6 139.763 279.961C142.384 279.321 215.842 222.347 215.842 222.347L210.046 209.814L153.047 237.957L140.728 200.284Z" fill="white"/>
<path d="M138.671 262.083C140.532 256.646 142.68 251.303 145.106 246.075C147.791 240.912 132.224 257.957 129 248.657C125.776 239.356 105.379 192.889 109.13 177.4C110.757 170.204 115.135 163.858 121.398 159.619C115.415 158.256 108.089 159.704 103.523 167.545C95.5575 181.248 102.795 196.81 105.706 207.956C108.616 219.102 126.955 269.478 129.614 275.787C132.274 282.096 137.141 280.612 139.762 279.973C141.694 279.466 181.158 249.151 202.482 232.709L138.671 262.083Z" fill="#3B82F6"/>
<path opacity="0.5" d="M138.671 262.083C140.532 256.646 142.68 251.303 145.106 246.075C147.791 240.912 132.224 257.957 129 248.657C125.776 239.356 105.379 192.889 109.13 177.4C110.757 170.204 115.135 163.858 121.398 159.619C115.415 158.256 108.089 159.704 103.523 167.545C95.5575 181.248 102.795 196.81 105.706 207.956C108.616 219.102 126.955 269.478 129.614 275.787C132.274 282.096 137.141 280.612 139.762 279.973C141.694 279.466 181.158 249.151 202.482 232.709L138.671 262.083Z" fill="white"/>
<path d="M140.728 200.284C140.728 200.284 133.716 172.177 130.819 165.904C127.921 159.631 111.501 153.841 103.523 167.532C95.5449 181.224 102.795 196.798 105.706 207.944C108.616 219.09 126.955 269.466 129.614 275.775C132.274 282.084 137.141 280.6 139.763 279.961C142.384 279.321 215.842 222.347 215.842 222.347L210.046 209.814L153.047 237.957L140.728 200.284Z" stroke="#263238" stroke-width="0.75" stroke-linecap="round" stroke-linejoin="round"/>
<path d="M201.592 214.458L208.115 227.233" stroke="#263238" stroke-width="0.75" stroke-linecap="round" stroke-linejoin="round"/>
<path d="M48.367 150.367L15 172.623C15 172.623 31.4452 189.343 29.7517 233.204C28.4973 266.703 33.101 304.738 39.7869 312.471H75.3115C75.3115 312.471 63.0309 247.33 63.909 210.007C64.5989 181.646 55.7429 161.959 48.367 150.367Z" fill="white" stroke="#263238" stroke-width="0.75" stroke-linecap="round" stroke-linejoin="round"/>
<path d="M52.3811 150.367L19.0141 172.623C19.0141 172.623 35.4592 189.343 33.7533 233.204C32.4989 266.703 37.1025 304.738 43.7884 312.471H79.3256C79.3256 312.471 67.0575 247.33 67.9356 210.007C68.6005 181.646 59.7444 161.959 52.3811 150.367Z" fill="#263238" stroke="#263238" stroke-width="0.75" stroke-linecap="round" stroke-linejoin="round"/>
<path d="M48.367 150.367H52.3811L19.0141 172.623H15.0126L48.367 150.367Z" fill="white" stroke="#263238" stroke-width="0.75" stroke-linecap="round" stroke-linejoin="round"/>
</svg>
