<svg width="1408" height="325" viewBox="0 0 1408 325" fill="none" xmlns="http://www.w3.org/2000/svg">
<path d="M457.641 51.3584V269H416.859V51.3584H457.641ZM554.213 115.787L487.66 191.686L451.977 227.794L437.108 198.341L465.429 162.374L505.219 115.787H554.213ZM511.874 269L466.562 198.199L494.74 173.561L558.886 269H511.874ZM565.258 193.951V190.978C565.258 179.744 566.863 169.407 570.072 159.967C573.282 150.432 577.955 142.172 584.091 135.187C590.227 128.201 597.779 122.773 606.747 118.902C615.715 114.938 626.005 112.955 637.616 112.955C649.228 112.955 659.564 114.938 668.627 118.902C677.689 122.773 685.289 128.201 691.425 135.187C697.655 142.172 702.375 150.432 705.585 159.967C708.795 169.407 710.399 179.744 710.399 190.978V193.951C710.399 205.09 708.795 215.427 705.585 224.962C702.375 234.402 697.655 242.662 691.425 249.742C685.289 256.728 677.737 262.156 668.769 266.026C659.8 269.897 649.511 271.832 637.899 271.832C626.288 271.832 615.951 269.897 606.889 266.026C597.921 262.156 590.321 256.728 584.091 249.742C577.955 242.662 573.282 234.402 570.072 224.962C566.863 215.427 565.258 205.09 565.258 193.951ZM606.039 190.978V193.951C606.039 200.37 606.605 206.365 607.738 211.935C608.871 217.504 610.665 222.413 613.119 226.661C615.668 230.815 618.972 234.072 623.031 236.432C627.09 238.792 632.047 239.972 637.899 239.972C643.563 239.972 648.425 238.792 652.484 236.432C656.544 234.072 659.8 230.815 662.255 226.661C664.709 222.413 666.503 217.504 667.636 211.935C668.863 206.365 669.477 200.37 669.477 193.951V190.978C669.477 184.747 668.863 178.894 667.636 173.419C666.503 167.849 664.662 162.94 662.113 158.692C659.659 154.35 656.402 150.951 652.343 148.497C648.284 146.043 643.375 144.815 637.616 144.815C631.858 144.815 626.949 146.043 622.89 148.497C618.925 150.951 615.668 154.35 613.119 158.692C610.665 162.94 608.871 167.849 607.738 173.419C606.605 178.894 606.039 184.747 606.039 190.978ZM805.98 271.832C794.086 271.832 783.419 269.944 773.979 266.168C764.538 262.298 756.514 256.964 749.906 250.167C743.393 243.37 738.389 235.488 734.896 226.52C731.404 217.457 729.657 207.828 729.657 197.633V191.969C729.657 180.357 731.309 169.737 734.613 160.108C737.917 150.479 742.637 142.125 748.773 135.045C755.004 127.965 762.556 122.537 771.43 118.761C780.303 114.89 790.31 112.955 801.449 112.955C812.305 112.955 821.934 114.749 830.336 118.336C838.738 121.923 845.771 127.021 851.435 133.629C857.193 140.237 861.535 148.167 864.462 157.418C867.388 166.575 868.852 176.77 868.852 188.004V204.996H747.074V177.809H828.778V174.693C828.778 169.029 827.74 163.979 825.663 159.542C823.681 155.011 820.66 151.424 816.601 148.78C812.541 146.137 807.349 144.815 801.024 144.815C795.644 144.815 791.018 145.995 787.147 148.355C783.277 150.715 780.115 154.02 777.66 158.268C775.3 162.516 773.507 167.519 772.279 173.277C771.146 178.941 770.58 185.172 770.58 191.969V197.633C770.58 203.769 771.43 209.433 773.129 214.625C774.923 219.817 777.424 224.301 780.634 228.077C783.938 231.853 787.903 234.78 792.528 236.856C797.248 238.933 802.582 239.972 808.529 239.972C815.893 239.972 822.737 238.556 829.062 235.724C835.481 232.797 841.003 228.408 845.629 222.555L865.453 244.078C862.243 248.704 857.854 253.141 852.284 257.389C846.809 261.637 840.201 265.13 832.46 267.867C824.719 270.51 815.893 271.832 805.98 271.832ZM955.37 239.972C960.373 239.972 964.81 239.028 968.681 237.14C972.551 235.157 975.572 232.42 977.743 228.927C980.009 225.34 981.189 221.139 981.283 216.324H1019.66C1019.56 227.086 1016.68 236.668 1011.02 245.069C1005.36 253.377 997.756 259.938 988.222 264.752C978.687 269.472 968.02 271.832 956.22 271.832C944.325 271.832 933.941 269.85 925.067 265.885C916.288 261.92 908.972 256.445 903.119 249.459C897.266 242.379 892.877 234.166 889.95 224.82C887.024 215.38 885.561 205.279 885.561 194.518V190.411C885.561 179.555 887.024 169.454 889.95 160.108C892.877 150.668 897.266 142.455 903.119 135.47C908.972 128.39 916.288 122.867 925.067 118.902C933.847 114.938 944.136 112.955 955.937 112.955C968.492 112.955 979.49 115.362 988.93 120.177C998.464 124.991 1005.92 131.882 1011.3 140.851C1016.78 149.724 1019.56 160.25 1019.66 172.428H981.283C981.189 167.33 980.103 162.704 978.026 158.551C976.044 154.397 973.118 151.093 969.247 148.639C965.471 146.09 960.798 144.815 955.229 144.815C949.281 144.815 944.42 146.09 940.644 148.639C936.868 151.093 933.941 154.492 931.864 158.834C929.787 163.082 928.324 167.944 927.475 173.419C926.719 178.8 926.342 184.464 926.342 190.411V194.518C926.342 200.465 926.719 206.176 927.475 211.651C928.23 217.127 929.646 221.988 931.723 226.236C933.894 230.484 936.868 233.836 940.644 236.29C944.42 238.744 949.328 239.972 955.37 239.972ZM1083.09 51.5V269H1042.31V51.5H1083.09ZM1077.29 187.013H1066.1C1066.2 176.345 1067.61 166.528 1070.35 157.56C1073.09 148.497 1077.01 140.662 1082.1 134.054C1087.2 127.351 1093.29 122.159 1100.37 118.478C1107.54 114.796 1115.47 112.955 1124.16 112.955C1131.71 112.955 1138.56 114.041 1144.69 116.212C1150.92 118.289 1156.26 121.687 1160.69 126.407C1165.22 131.033 1168.72 137.122 1171.17 144.674C1173.63 152.226 1174.85 161.383 1174.85 172.145V269H1133.79V171.861C1133.79 165.064 1132.8 159.731 1130.81 155.86C1128.93 151.896 1126.14 149.111 1122.46 147.506C1118.87 145.807 1114.44 144.957 1109.15 144.957C1103.3 144.957 1098.29 146.043 1094.14 148.214C1090.08 150.385 1086.82 153.406 1084.37 157.276C1081.91 161.052 1080.12 165.489 1078.99 170.587C1077.86 175.685 1077.29 181.16 1077.29 187.013ZM1248.91 115.787V269H1207.99V115.787H1248.91ZM1205.44 75.8555C1205.44 69.9082 1207.52 64.9993 1211.67 61.1289C1215.82 57.2585 1221.39 55.3232 1228.38 55.3232C1235.27 55.3232 1240.79 57.2585 1244.95 61.1289C1249.19 64.9993 1251.32 69.9082 1251.32 75.8555C1251.32 81.8027 1249.19 86.7116 1244.95 90.582C1240.79 94.4525 1235.27 96.3877 1228.38 96.3877C1221.39 96.3877 1215.82 94.4525 1211.67 90.582C1207.52 86.7116 1205.44 81.8027 1205.44 75.8555Z" fill="black"/>
<path d="M26 269C73.5 199.5 108 97 152.5 128.5C197 160 192 260 239.5 187C277.5 128.6 311.333 76 323.5 57" stroke="url(#paint0_linear_8_6)" stroke-width="50" stroke-linecap="round" stroke-linejoin="round"/>
<defs>
<linearGradient id="paint0_linear_8_6" x1="35.5" y1="269" x2="412" y2="269" gradientUnits="userSpaceOnUse">
<stop stop-color="#2DB2CF" stop-opacity="0.76"/>
<stop offset="0.352879" stop-color="#1C7BFF" stop-opacity="0.88"/>
<stop offset="0.907243" stop-color="#1069E6" stop-opacity="0.94"/>
</linearGradient>
</defs>
</svg>
