<svg xmlns="http://www.w3.org/2000/svg" viewBox="0 0 500 500"><g id="freepik--background-simple--inject-6"><path d="M475.79,277.05c-13.49,40.89-42.56,85.72-85.35,100.31C325.8,399.42,320,452.43,202.71,452.07a236.91,236.91,0,0,1-50.94-5.47,197.3,197.3,0,0,1-24.12-7c-69.5-25.07-107.55-84.69-113-148.4-7.15-83.8,49.87-126.07,87-151s79.53-117.45,194.87-118a228.73,228.73,0,0,1,52.35,5.59c39.16,9,79.46,30.67,103.67,63.7,1.81,2.48,3.55,5,5.23,7.62C490.46,149.94,494.19,221.29,475.79,277.05Z" style="fill:#60A5FA"></path><path d="M475.79,277.05c-13.49,40.89-42.56,85.72-85.35,100.31C325.8,399.42,320,452.43,202.71,452.07a236.91,236.91,0,0,1-50.94-5.47,197.3,197.3,0,0,1-24.12-7c-69.5-25.07-107.55-84.69-113-148.4-7.15-83.8,49.87-126.07,87-151s79.53-117.45,194.87-118a228.73,228.73,0,0,1,52.35,5.59c39.16,9,79.46,30.67,103.67,63.7,1.81,2.48,3.55,5,5.23,7.62C490.46,149.94,494.19,221.29,475.79,277.05Z" style="fill:#fff;opacity:0.7000000000000001"></path></g><g id="freepik--Padlock--inject-6"><path d="M342.64,343.48V247.33a42.29,42.29,0,1,1,84.57,0v96.15h17.45V247.33a59.81,59.81,0,0,0-59.74-59.74h0a59.81,59.81,0,0,0-59.74,59.74v96.15Z" style="fill:#263238"></path><rect x="316.49" y="301.65" width="142.39" height="159.05" style="fill:#b2b2b2"></rect><polygon points="458.88 315.18 316.49 457.57 316.49 460.7 330.72 460.7 458.88 332.55 458.88 315.18" style="fill:#fff"></polygon><polygon points="316.49 341.26 316.49 393.24 408.08 301.65 356.1 301.65 316.49 341.26" style="fill:#fff"></polygon><path d="M458.88,461.2H316.49a.5.5,0,0,1-.5-.5v-159a.5.5,0,0,1,.5-.5H458.88a.5.5,0,0,1,.5.5V460.7A.5.5,0,0,1,458.88,461.2ZM317,460.2H458.38v-158H317Z" style="fill:#263238"></path><rect x="428.91" y="301.65" width="29.97" height="159.05" style="fill:#263238"></rect><path d="M458.88,461.2h-30a.5.5,0,0,1-.5-.5v-159a.5.5,0,0,1,.5-.5h30a.5.5,0,0,1,.5.5V460.7A.5.5,0,0,1,458.88,461.2Zm-29.47-1h29v-158h-29Z" style="fill:#263238"></path><path d="M376.57,364.58a10,10,0,1,0-13.88,9.19l-1.83,21.67h11.47l-1.84-21.67A10,10,0,0,0,376.57,364.58Z" style="fill:#263238"></path><path d="M372.33,395.94H360.86a.51.51,0,0,1-.37-.16.48.48,0,0,1-.13-.38l1.8-21.32a10.48,10.48,0,1,1,8.86,0l1.8,21.32a.45.45,0,0,1-.13.38A.48.48,0,0,1,372.33,395.94Zm-10.93-1h10.38L370,373.81a.5.5,0,0,1,.3-.5,9.48,9.48,0,1,0-7.42,0,.51.51,0,0,1,.31.5Z" style="fill:#263238"></path></g><g id="freepik--Characters--inject-6"><path d="M93.14,366.34l-7.75,40.34L73,443.57l-3.06,5.76s-3.43,5-3.79,8.82a4.35,4.35,0,0,0,5.95,4.68c2.7-1.26,4.14-6.48,4.68-8.82s1.62-6.48,2-7.92a9,9,0,0,1,1.08-2.52s21.4-35.63,21.4-36.71,10.08-27.37,10.08-27.37l2,.18L119.25,409l-16.57,34.4s-5.22,6.12-4.86,6.84a24.47,24.47,0,0,0,4.32,4.33c1.08.72,5,7,7.92,7.74s4,1.44,3.43-.9a70.9,70.9,0,0,0-2.53-7c-.36-1.08-1.07-8.62-1.07-8.62L134.74,413l-3.25-40.52Z" style="fill:#fff"></path><path d="M70.46,463.69a4.68,4.68,0,0,1-2.74-.88,5,5,0,0,1-2.06-4.7c.36-3.87,3.72-8.85,3.86-9.06l3-5.72,12.36-36.81,7.73-40.27a.49.49,0,0,1,.56-.4L131.57,372a.51.51,0,0,1,.42.46L135.23,413a.47.47,0,0,1-.1.34l-24.72,32.65c.28,3,.78,7.57,1,8.31.11.32.32.86.59,1.53a41,41,0,0,1,1.94,5.54c.18.75.28,1.5-.17,1.93s-1.3.26-2.62-.1c-.36-.11-.78-.22-1.24-.33-2.12-.54-4.6-3.63-6.41-5.89a14.7,14.7,0,0,0-1.67-1.93,24.82,24.82,0,0,1-4.49-4.51c-.15-.31-.51-1,4.89-7.34L118.73,409l-5.84-28.83-1.23-.11c-4,10.37-9.8,25.82-9.92,26.87s-15,26.19-21.47,36.93a8.81,8.81,0,0,0-1,2.39l-.42,1.68c-.49,1.92-1.16,4.53-1.55,6.23-.81,3.51-2.33,7.94-5,9.17A4.4,4.4,0,0,1,70.46,463.69Zm23.08-96.77-7.66,39.86-12.41,37-3.09,5.83c-.06.1-3.38,5-3.73,8.64a4,4,0,0,0,1.64,3.8,3.63,3.63,0,0,0,3.6.38c1.74-.81,3.34-3.9,4.4-8.48.4-1.71,1.07-4.34,1.56-6.25l.43-1.68a9.42,9.42,0,0,1,1.14-2.68c8.38-13.94,21-35.18,21.33-36.5,0-1,7.73-21.29,10.11-27.48a.5.5,0,0,1,.51-.32l2,.18a.52.52,0,0,1,.45.4l5.94,29.35a.5.5,0,0,1,0,.32l-16.57,34.4-.07.11c-2.16,2.53-4.54,5.62-4.75,6.37a25.91,25.91,0,0,0,4.11,4.05,12.59,12.59,0,0,1,1.89,2.13c1.63,2,4.08,5.09,5.88,5.54l1.26.34a5.67,5.67,0,0,0,1.68.34,2.78,2.78,0,0,0-.13-1,41.27,41.27,0,0,0-1.9-5.39c-.27-.69-.5-1.25-.61-1.59-.37-1.1-1-7.94-1.1-8.72a.55.55,0,0,1,.1-.35l24.73-32.65L131,372.9Z" style="fill:#263238"></path><path d="M104.36,454.43a73.09,73.09,0,0,1-5.82-5.71c-.5.76-.82,1.35-.72,1.54a24.47,24.47,0,0,0,4.32,4.33c1.08.72,5,7,7.92,7.74,1.93.48,3,1,3.42.53C107.63,461.32,105.91,455.6,104.36,454.43Z" style="fill:#fff"></path><path d="M113,463.52a7.65,7.65,0,0,1-1.85-.38l-1.23-.32c-2.12-.54-4.6-3.63-6.41-5.89a14.7,14.7,0,0,0-1.67-1.93,24.82,24.82,0,0,1-4.49-4.51c-.19-.39,0-.91.76-2.05a.5.5,0,0,1,.78-.06,67.87,67.87,0,0,0,5.75,5.65,8.48,8.48,0,0,1,1.61,2.07c1.42,2.21,3.37,5.23,7.33,6.27a.5.5,0,0,1,.35.34.47.47,0,0,1-.09.47A1,1,0,0,1,113,463.52Zm-14.7-13.39a26.22,26.22,0,0,0,4.1,4,12.59,12.59,0,0,1,1.89,2.13c1.55,1.94,3.85,4.81,5.62,5.47a17.08,17.08,0,0,1-4.51-5.13,8.08,8.08,0,0,0-1.36-1.81h0a65.59,65.59,0,0,1-5.44-5.3A2.71,2.71,0,0,0,98.32,450.13Zm0-.09Z" style="fill:#263238"></path><path d="M75.45,458.34c-1.88,1.89-4.08,3.31-6.42,2.61-2.75-.82-2.09-5-1.36-7.6a15.64,15.64,0,0,0-1.52,4.8,4.35,4.35,0,0,0,5.95,4.68C73.57,462.15,74.67,460.27,75.45,458.34Z" style="fill:#fff"></path><path d="M70.46,463.69a4.68,4.68,0,0,1-2.74-.88,5,5,0,0,1-2.06-4.71,15.61,15.61,0,0,1,1.56-5,.5.5,0,0,1,.94.35c-.64,2.31-1.36,6.28,1,7C71,461,72.9,460.2,75.1,458a.51.51,0,0,1,.63-.06.5.5,0,0,1,.19.6c-1,2.52-2.24,4.13-3.61,4.77A4.4,4.4,0,0,1,70.46,463.69Zm-3.83-5.15A4,4,0,0,0,68.29,462a3.63,3.63,0,0,0,3.6.38,5.22,5.22,0,0,0,2-2.08,5.68,5.68,0,0,1-5,1.13A3.26,3.26,0,0,1,66.63,458.54Z" style="fill:#263238"></path><path d="M93.14,366.34l-7.75,40.34L73,443.57s1.1,3.95,6,1.78a9,9,0,0,1,.85-1.78s21.4-35.63,21.4-36.71,10.08-27.37,10.08-27.37l2,.18L119.25,409l-16.57,34.4s2.16,3.63,7.28,2.29L134.74,413l-3.25-40.52Z" style="fill:#263238"></path><path d="M107.79,446.5a6.61,6.61,0,0,1-5.54-2.82.54.54,0,0,1,0-.48L118.73,409l-5.84-28.83-1.23-.11c-4,10.37-9.8,25.82-9.92,26.87s-15,26.19-21.47,36.93a8.35,8.35,0,0,0-.81,1.7.54.54,0,0,1-.27.29,5.43,5.43,0,0,1-4.59.32,4.05,4.05,0,0,1-2.08-2.43.48.48,0,0,1,0-.29l12.4-36.89,7.73-40.27a.49.49,0,0,1,.56-.4L131.57,372a.51.51,0,0,1,.42.46L135.23,413a.47.47,0,0,1-.1.34L110.35,446a.47.47,0,0,1-.27.18A8.89,8.89,0,0,1,107.79,446.5Zm-4.53-3.12c.53.7,2.49,2.83,6.4,1.89l24.56-32.43L131,372.9l-37.49-6-7.66,39.86L73.53,443.56a3.07,3.07,0,0,0,1.5,1.67,4.37,4.37,0,0,0,3.56-.26,10,10,0,0,1,.83-1.68c8.38-13.94,21-35.18,21.33-36.5,0-1,7.73-21.29,10.11-27.48a.5.5,0,0,1,.51-.32l2,.18a.52.52,0,0,1,.45.4l5.94,29.35a.5.5,0,0,1,0,.32Z" style="fill:#263238"></path><path d="M123.55,310.1l-4.49.83L98.48,370.77s3.9,6.85,16.56,6.74,16.32-2.13,16.32-2.13L131,339.19l5.19-23.94S128.16,310.34,123.55,310.1Z" style="fill:#fff"></path><path d="M114.71,378c-12.54,0-16.5-6.71-16.66-7a.49.49,0,0,1,0-.41l20.58-59.83a.48.48,0,0,1,.38-.33l4.49-.83h.12c4.68.23,12.54,5,12.87,5.21a.48.48,0,0,1,.23.53l-5.18,23.89.36,36.13a.51.51,0,0,1-.26.45c-.16.08-3.93,2.07-16.56,2.19ZM99,370.7c.74,1.06,5,6.39,16,6.31,10.52-.1,14.78-1.53,15.82-1.95l-.35-35.86a.37.37,0,0,1,0-.11l5.12-23.6c-1.49-.87-8.1-4.65-12-4.88l-4.14.76Z" style="fill:#263238"></path><path d="M146.73,293.67a50.89,50.89,0,0,1-.29,6.25c-.28.76-1.7,1.8-1.7,2.47s1.61,3.31,1.33,4-3.13,1.42-3.13,1.42-2.37,4.64-3.51,5.11-5.59-1.8-5.59-1.8L131.28,319s-1.13,2.18-5.4,1.51-5.78-2.27-6-3.31-.66-1.33-.09-2.47,1.42-3.6,1.42-3.6l5.4-11.37.85-5.21s1.9-3.69,8.91-4.45S146.73,293.67,146.73,293.67Z" style="fill:#fff"></path><path d="M127.41,321.11a10.51,10.51,0,0,1-1.6-.13c-4.33-.68-6.14-2.37-6.39-3.72a5,5,0,0,0-.18-.68,2.3,2.3,0,0,1,.13-2.1c.55-1.09,1.39-3.52,1.4-3.54l5.39-11.36.84-5.14a.88.88,0,0,1,0-.15c.08-.16,2.1-3.94,9.3-4.72s10.63,3.61,10.78,3.8a.51.51,0,0,1,.1.3,45.19,45.19,0,0,1-.32,6.43,4.48,4.48,0,0,1-.93,1.29c-.27.3-.73.81-.74,1a8.56,8.56,0,0,0,.54,1.37c.62,1.38,1,2.25.75,2.8-.32.73-2.08,1.33-3.25,1.65-.58,1.12-2.49,4.67-3.65,5.16s-4-.85-5.49-1.56l-2.38,7.31C131.69,319.28,130.69,321.11,127.41,321.11Zm.56-26.42-.83,5.12a.58.58,0,0,1,0,.14l-5.4,11.37c0,.05-.85,2.46-1.42,3.61a1.34,1.34,0,0,0-.08,1.33,6.71,6.71,0,0,1,.22.82c.14.78,1.47,2.28,5.55,2.91,3.81.59,4.84-1.18,4.88-1.26l2.53-7.78a.51.51,0,0,1,.28-.31.48.48,0,0,1,.42,0c2.05,1,4.62,2,5.17,1.78s2.15-2.73,3.25-4.88a.52.52,0,0,1,.32-.26,8.07,8.07,0,0,0,2.8-1.15,8.87,8.87,0,0,0-.74-2,5.6,5.6,0,0,1-.63-1.78,3,3,0,0,1,1-1.67,4.47,4.47,0,0,0,.75-1,46.07,46.07,0,0,0,.25-5.9c-.6-.7-3.73-3.94-9.78-3.28S128.26,294.23,128,294.69Z" style="fill:#263238"></path><path d="M141.8,308.57a.25.25,0,0,1-.12,0,3.36,3.36,0,0,1-2.74-2.7.5.5,0,0,1,.44-.55.5.5,0,0,1,.55.44,2.45,2.45,0,0,0,2,1.85.5.5,0,0,1,.36.61A.51.51,0,0,1,141.8,308.57Z" style="fill:#263238"></path><path d="M144.55,300a.51.51,0,0,1-.39-.18,2.45,2.45,0,0,0-2.31-.88.51.51,0,0,1-.62-.34.49.49,0,0,1,.34-.62,3.43,3.43,0,0,1,3.37,1.2.52.52,0,0,1-.07.71A.56.56,0,0,1,144.55,300Z" style="fill:#263238"></path><path d="M143.12,301.71c-.11.48-.46.82-.79.75s-.52-.52-.42-1,.45-.83.79-.76S143.22,301.22,143.12,301.71Z" style="fill:#263238"></path><polygon points="133.84 311.1 131.09 308.64 133.09 313.76 133.84 311.1" style="fill:#263238"></polygon><path d="M133.08,314.26a.5.5,0,0,1-.46-.32l-2-5.12a.5.5,0,0,1,.18-.59.5.5,0,0,1,.62,0l2.75,2.46a.49.49,0,0,1,.14.51l-.75,2.65a.51.51,0,0,1-.46.37Zm-.76-3.85.69,1.78.27-.92Z" style="fill:#263238"></path><path d="M132,298.22a41.12,41.12,0,0,0,4.92-2c1-.67-.37-2.85.48-3.6s4.55-1.14,6.54-.48,2.08,2.18,4,1.9,4.26-1.8,3.22-4.46a9.15,9.15,0,0,0-6.73-5.21c-2.56-.28-5.21.38-8.53,0s-6.72-1.61-8.53,2-3.31,7.49-2.65,9.38.95,4.27,1.71,4.65S132,298.22,132,298.22Z" style="fill:#263238"></path><path d="M126.53,300.92a.92.92,0,0,1-.4-.08c-.7-.35-1-1.51-1.39-3-.17-.65-.34-1.32-.56-1.94-.61-1.75.26-4.94,2.68-9.77,1.68-3.37,4.65-2.92,7.51-2.48.51.08,1,.16,1.52.22a26.92,26.92,0,0,0,4.75,0,21.7,21.7,0,0,1,3.78,0,9.57,9.57,0,0,1,7.13,5.52,3.34,3.34,0,0,1-.13,3,4.9,4.9,0,0,1-3.48,2.13,2.83,2.83,0,0,1-2.58-.9,4.42,4.42,0,0,0-1.63-1c-1.89-.63-5.39-.22-6,.37-.2.18-.1.77,0,1.29.14.82.3,1.84-.52,2.36a38.9,38.9,0,0,1-5,2C130.13,299.74,127.65,300.92,126.53,300.92Zm4.94-16.55a3.73,3.73,0,0,0-3.72,2.23c-2.81,5.61-3,8-2.63,9,.23.66.41,1.35.59,2,.23.87.57,2.19.87,2.34.46.06,3-1.06,5.13-2.17l.08,0a39.35,39.35,0,0,0,4.82-1.93c.24-.16.18-.66.06-1.35s-.27-1.66.35-2.21c1-.93,5-1.25,7-.57a5.38,5.38,0,0,1,2,1.2,1.88,1.88,0,0,0,1.78.67,4,4,0,0,0,2.77-1.64,2.36,2.36,0,0,0,.06-2.13,8.62,8.62,0,0,0-6.31-4.9,20.78,20.78,0,0,0-3.61,0,27.94,27.94,0,0,1-4.92,0c-.52-.06-1-.14-1.56-.22A18.66,18.66,0,0,0,131.47,284.37Z" style="fill:#263238"></path><path d="M132.42,299.54s-.38-4.54-2.37-3.69-1.8,5.21-.57,6.06a1.72,1.72,0,0,0,2.28-.47" style="fill:#fff"></path><path d="M130.34,302.7a2,2,0,0,1-1.14-.38c-.92-.63-1.26-2.43-1.11-3.88a3.47,3.47,0,0,1,1.77-3.05,1.51,1.51,0,0,1,1.43.07c1.32.79,1.6,3.71,1.63,4a.5.5,0,0,1-1,.09c-.09-1.06-.48-2.87-1.15-3.28a.51.51,0,0,0-.52,0,2.6,2.6,0,0,0-1.17,2.23,3.73,3.73,0,0,0,.69,3c.83.58,1.56-.33,1.59-.37a.5.5,0,1,1,.79.62A2.48,2.48,0,0,1,130.34,302.7Z" style="fill:#263238"></path><path d="M118.49,319.35,99.54,380.84s-4.93-3.88-7.67-6.54-3.41-3.41-3.41-3.41l6.82-15.06L96.51,351l-20,13.27-3.41-6.73,17-15.16s10.42-28.9,11.08-29.28,19.62-2.93,19.62-2.93Z" style="fill:#b2b2b2"></path><path d="M99.54,381.34a.51.51,0,0,1-.31-.11s-5-3.93-7.71-6.57-3.41-3.41-3.44-3.44a.49.49,0,0,1-.08-.53l6.82-15.07.89-3.49L76.79,364.68a.51.51,0,0,1-.72-.19l-3.41-6.73a.5.5,0,0,1,.11-.6l16.87-15.08c10.44-28.95,11.06-29.3,11.26-29.42.68-.39,14.07-2.23,19.8-3a.51.51,0,0,1,.44.16.52.52,0,0,1,.11.46L119,319.47v0L100,381a.5.5,0,0,1-.33.33ZM89.05,370.8c.37.39,1.27,1.31,3.16,3.14,2.15,2.08,5.69,4.95,7.07,6.05L118,319.21l2.09-8.46c-7.16,1-17.34,2.42-18.64,2.77-.9,1.56-7,18.07-10.92,29a.6.6,0,0,1-.14.21l-16.67,14.9,3,5.88,19.52-12.95a.5.5,0,0,1,.57,0,.48.48,0,0,1,.19.53L95.76,356Zm29.44-51.45h0Z" style="fill:#263238"></path><path d="M122.57,308.55s-2.85-.76-4.27.66-6.63,8.91-5.3,9.66,4.92-1.23,4.92-1.23l.57,1.71Z" style="fill:#fff"></path><path d="M118.49,319.85h0a.5.5,0,0,1-.46-.35l-.38-1.14c-1.17.58-3.65,1.66-4.89.95a.9.9,0,0,1-.45-.72c-.27-2,4.45-8.53,5.65-9.73,1.61-1.61,4.62-.83,4.75-.8a.5.5,0,0,1,.31.26.47.47,0,0,1,0,.4L119,319.52A.5.5,0,0,1,118.49,319.85Zm2.38-11a3.1,3.1,0,0,0-2.21.72c-1.68,1.68-5.75,8-5.37,8.93.7.38,3-.52,4.39-1.29a.5.5,0,0,1,.43,0,.51.51,0,0,1,.29.3l.12.37,3.37-8.93A7.16,7.16,0,0,0,120.87,308.84Z" style="fill:#263238"></path><path d="M96.51,351.5l-.11,0a.49.49,0,0,1-.38-.59l6.16-28.33a.51.51,0,0,1,.6-.39.5.5,0,0,1,.38.6L97,351.1A.51.51,0,0,1,96.51,351.5Z" style="fill:#263238"></path><path d="M112.33,334.53h-.08l-9.67-1.71a.47.47,0,0,1-.32-.21.45.45,0,0,1-.08-.37l.57-3.13a.48.48,0,0,1,.55-.4l9.57,1.13a.5.5,0,0,1,.43.56.48.48,0,0,1-.55.43l-9.1-1.08-.4,2.17,8.72,1.54.36-1.27a.49.49,0,0,1,.61-.34.5.5,0,0,1,.35.61l-.47,1.71A.51.51,0,0,1,112.33,334.53Z" style="fill:#263238"></path><path d="M101.85,326.67a.5.5,0,0,1-.49-.41c0-.23-1-5.69-1.24-8.72a.5.5,0,1,1,1-.08c.22,3,1.23,8.56,1.24,8.62a.51.51,0,0,1-.41.58Z" style="fill:#263238"></path><path d="M100.86,327.67s-1.68-2.82-2.81-4.61a.51.51,0,0,1,.16-.69.49.49,0,0,1,.69.16c1.13,1.8,2.82,4.62,2.82,4.62Z" style="fill:#263238"></path><path d="M131.28,319s-4.66,19.58-4.54,25.55,1.69,37.61,1.69,37.61,6.07-1.13,7.09-1.47l4.95-1.57s-6.87-22.3-6.87-23.08,1.24-6.08,1.24-6.08,4.06,9.12,4.62,9.79,16.07,7.67,16.07,7.67l1.38-8.23-9.8-9s-2.13-17-2.13-18.35.56-9.91.56-9.91l-12.27-9.68Z" style="fill:#b2b2b2"></path><path d="M128.42,382.63a.51.51,0,0,1-.31-.11.47.47,0,0,1-.18-.37c0-.32-1.58-31.71-1.69-37.62s4.37-24.88,4.56-25.68v0l2-6.76a.5.5,0,0,1,.32-.34.5.5,0,0,1,.47.09l12.27,9.68a.49.49,0,0,1,.19.42c0,.09-.56,8.56-.56,9.88,0,1,1.36,12.19,2.11,18.11l9.66,8.88a.5.5,0,0,1,.15.45L156,367.47a.5.5,0,0,1-.25.36.51.51,0,0,1-.45,0c-4.69-2.11-15.67-7.11-16.25-7.8s-2.85-5.82-4.07-8.54c-.43,1.9-.9,4.09-.9,4.51.1.81,4.15,14.16,6.85,22.93a.5.5,0,0,1-.33.62s-3.93,1.24-4.94,1.58-6.91,1.43-7.16,1.48Zm3.35-63.53c-.14.58-4.64,19.64-4.53,25.41.1,5.45,1.44,32.71,1.66,37,2-.37,5.73-1.1,6.46-1.34s3.41-1.09,4.49-1.43c-1.77-5.73-6.75-22-6.75-22.75s1.13-5.65,1.26-6.2a.48.48,0,0,1,.44-.38.52.52,0,0,1,.5.29c1.55,3.49,4.15,9.2,4.54,9.68.61.53,9.47,4.63,15.3,7.27l1.23-7.33-9.59-8.82a.47.47,0,0,1-.16-.31c-.09-.69-2.14-17-2.14-18.41s.45-8.21.54-9.68l-11.48-9.06Z" style="fill:#263238"></path><path d="M168.82,364.62s-4.91,1.07-6.17,1.19a14.4,14.4,0,0,1-4.73-.5c-1.07-.38-3.15-1.2-3.15-1.2a3.36,3.36,0,0,1-.12-1.95c.31-.69,2-.63,2-.63l10.65,1.07Z" style="fill:#fff"></path><path d="M161.87,366.35a14.82,14.82,0,0,1-4.11-.57c-1.08-.38-3.17-1.2-3.17-1.2a.51.51,0,0,1-.29-.3,3.83,3.83,0,0,1-.11-2.33c.43-.95,2.16-.93,2.49-.92l10.68,1.07a.55.55,0,0,1,.35.2l1.51,2a.49.49,0,0,1,.07.47.52.52,0,0,1-.37.32c-.2,0-4.95,1.07-6.22,1.2C162.45,366.33,162.17,366.35,161.87,366.35Zm-6.69-2.61c.56.22,2.06.8,2.91,1.1a14.41,14.41,0,0,0,4.51.48c.92-.1,3.93-.72,5.35-1l-.91-1.21L156.61,362c-.65,0-1.42.14-1.51.34A2.64,2.64,0,0,0,155.18,363.74Z" style="fill:#263238"></path><path d="M134.84,350.43l-.13,0a.51.51,0,0,1-.35-.62l5.52-20a.5.5,0,1,1,1,.27l-5.52,20A.5.5,0,0,1,134.84,350.43Z" style="fill:#263238"></path><path d="M136.19,338.27l-.13,0-5.85-1.58a.49.49,0,0,1-.37-.54l.34-2.71a.53.53,0,0,1,.22-.35.51.51,0,0,1,.4-.07l6.64,1.69a.5.5,0,0,1,.36.61.49.49,0,0,1-.6.36l-6.1-1.55-.21,1.71,5.43,1.46a.5.5,0,0,1-.13,1Z" style="fill:#263238"></path><path d="M138.22,338.94a.52.52,0,0,1-.29-.09.5.5,0,0,1-.12-.69l3.38-4.85a.5.5,0,0,1,.82.58l-3.38,4.84A.49.49,0,0,1,138.22,338.94Z" style="fill:#263238"></path><path d="M130.79,322.12l1.24-1.24s2.81,3.26,3.38,2.25,1.68-3.6.78-7.88-2.35-4.15-2.35-4.15L131.28,319Z" style="fill:#fff"></path><path d="M135.08,323.82c-.9,0-2.27-1.33-3.07-2.21l-.87.86a.5.5,0,0,1-.58.09.49.49,0,0,1-.26-.52l.49-3.15,2.58-7.94a.48.48,0,0,1,.43-.34c.31,0,1.94.05,2.88,4.54.89,4.23-.14,7-.84,8.22a.84.84,0,0,1-.67.45ZM132,320.38h0a.49.49,0,0,1,.36.17,8.74,8.74,0,0,0,2.6,2.27,10.86,10.86,0,0,0,.69-7.47c-.48-2.29-1.13-3.25-1.54-3.59l-2.4,7.36-.24,1.56.15-.16A.54.54,0,0,1,132,320.38Z" style="fill:#263238"></path><path d="M193.94,367.54l-5.92,40-13.57,38.93s-4.68,5-6,10.66,2.42,6,4.36,4.52,6.62-13.89,6.78-14.53S200,412,200.3,411.56s10-28.76,10-28.76l7.1,27.79L232.12,451s1,6.95,3.4,9.7,6,4.68,6.62,2.26.16-6.63-1.62-8.56a72.08,72.08,0,0,1-4.52-6l-5.17-41.68-3.2-39Z" style="fill:#fff"></path><path d="M240.76,464.53c-1.71,0-4-1.75-5.62-3.53-2.41-2.73-3.4-9.2-3.51-9.91L217,410.76l-6.7-26.21c-3.15,9.16-9.23,26.83-9.53,27.28-.17.26-20.13,34.24-20.63,35.43-.11.48-4.83,13.18-7,14.78a3.66,3.66,0,0,1-4,.38c-.94-.61-1.89-2-1.12-5.42,1.23-5.4,5.4-10.12,6-10.81l13.53-38.84,5.89-39.89a.51.51,0,0,1,.5-.42h0l33.69.19a.5.5,0,0,1,.5.46l3.2,39,5.15,41.54a68.67,68.67,0,0,0,4.41,5.82c1.89,2.06,2.43,6.41,1.73,9a1.81,1.81,0,0,1-1.35,1.41A2.1,2.1,0,0,1,240.76,464.53ZM210.32,382.3h0a.5.5,0,0,1,.46.38l7.11,27.78,14.68,40.34,0,.1c0,.07,1,6.83,3.27,9.43,1.79,2,4.05,3.43,5.15,3.17.19-.05.47-.17.62-.7.63-2.36.12-6.33-1.51-8.1a69.52,69.52,0,0,1-4.56-6,.47.47,0,0,1-.09-.22l-5.17-41.68-3.16-38.54-32.8-.19-5.85,39.55-13.59,39a.54.54,0,0,1-.11.18s-4.61,5-5.86,10.43c-.5,2.2-.25,3.74.69,4.36a2.69,2.69,0,0,0,2.89-.35c1.75-1.31,6.37-13.37,6.6-14.26s20.55-35.41,20.74-35.69c.34-.68,6.15-17.51,10-28.64A.51.51,0,0,1,210.32,382.3Zm-35.87,64.15h0Z" style="fill:#263238"></path><path d="M230.83,406.71l-3.2-39-33.69-.19-5.92,40L177.3,438.28l6.23,1.93c5.93-10.24,16.54-28.3,16.77-28.65s10-28.76,10-28.76l7.1,27.79,11.66,32,5.95-2Z" style="fill:#263238"></path><path d="M229.08,443.11a.5.5,0,0,1-.47-.33l-11.66-32-6.7-26.21c-3.15,9.16-9.23,26.83-9.53,27.28S190,430,184,440.46a.5.5,0,0,1-.58.23l-6.23-1.93a.51.51,0,0,1-.3-.26.48.48,0,0,1,0-.39l10.72-30.76,5.89-39.89a.51.51,0,0,1,.5-.42h0l33.69.19a.5.5,0,0,1,.5.46l3.2,39,4.2,33.88a.49.49,0,0,1-.34.53l-5.95,2ZM210.32,382.3h0a.5.5,0,0,1,.46.38l7.11,27.78L229.38,442l5.11-1.72-4.16-33.49v0l-3.16-38.52-32.8-.19-5.85,39.55L177.94,438l5.36,1.65c5.94-10.25,16.34-28,16.58-28.33.34-.68,6.15-17.51,10-28.64A.51.51,0,0,1,210.32,382.3Z" style="fill:#263238"></path><path d="M172.84,461.63c1-.75,2.75-4.46,4.22-7.95l-3.41,3.92-4-1.13.7-4.09a19.43,19.43,0,0,0-1.83,4.73C167.18,462.77,170.9,463.09,172.84,461.63Z" style="fill:#263238"></path><path d="M170.7,462.87a2.87,2.87,0,0,1-1.59-.45c-.94-.61-1.89-2-1.12-5.42a19.71,19.71,0,0,1,1.88-4.85.5.5,0,0,1,.93.31l-.62,3.64,3.3.93,3.2-3.68a.5.5,0,0,1,.84.52c-2,4.73-3.47,7.48-4.38,8.17h0A4.28,4.28,0,0,1,170.7,462.87Zm-1.58-6.28c-.06.21-.11.42-.16.63-.5,2.2-.25,3.74.69,4.36a2.69,2.69,0,0,0,2.89-.35h0c.28-.21,1.06-1.1,2.75-4.76L174,457.92a.49.49,0,0,1-.51.16l-4-1.13A.53.53,0,0,1,169.12,456.59Zm3.72,5h0Z" style="fill:#263238"></path><path d="M242.14,462.93c.64-2.43.16-6.63-1.62-8.56l-.38-.44.87,5.44-3.23,1.13-5.13-6.79c.51,2.25,1.44,5.33,2.87,7C237.94,463.41,241.49,465.35,242.14,462.93Z" style="fill:#263238"></path><path d="M240.76,464.53c-1.71,0-4-1.75-5.62-3.53s-2.45-4.84-3-7.18a.49.49,0,0,1,.88-.41l4.92,6.5,2.49-.87-.8-5a.5.5,0,0,1,.28-.53.51.51,0,0,1,.59.13l.37.42c1.89,2.06,2.43,6.41,1.73,9a1.81,1.81,0,0,1-1.35,1.41A2.1,2.1,0,0,1,240.76,464.53Zm-7-8.47a12.25,12.25,0,0,0,2.09,4.27c1.79,2,4.05,3.43,5.15,3.17.19-.05.47-.17.62-.7h0a11.24,11.24,0,0,0-.69-6.86l.53,3.35a.5.5,0,0,1-.33.55L237.94,461a.5.5,0,0,1-.56-.17Z" style="fill:#263238"></path><path d="M193.94,367.54s6.94,12.27,16.57,12.82,17.12-12.63,17.12-12.63l-33.06-1.32Z" style="fill:#fff"></path><path d="M211.11,380.88l-.63,0c-9.79-.56-16.69-12.57-17-13.08a.53.53,0,0,1,0-.49l.63-1.13a.51.51,0,0,1,.46-.25l33.06,1.32a.51.51,0,0,1,.42.26.5.5,0,0,1,0,.49C227.76,368.51,220.63,380.88,211.11,380.88Zm-16.6-13.35c1,1.7,7.52,11.84,16,12.33,8,.46,14.51-9,16.22-11.67l-31.91-1.27Z" style="fill:#263238"></path><path d="M204.85,321S194,326.28,193.94,327s-7.36,29.64-7.36,29.64-2.59,5.79.67,7.61,9.08-4.22,9.08-4.22l-2.39,7.56a50.32,50.32,0,0,0,18.17,4.4c8,.41,15.52-4.21,15.52-4.21l-1.15-8s6.72,4.53,9.11,3.48,4.19-3.19,4.19-4.62-1.14-1.82-3.06-3.93-5.07-12.54-5.07-12.54-2.68-14.35-3.35-15.5-9-4.88-9-4.88Z" style="fill:#b2b2b2"></path><path d="M213.15,372.47c-.35,0-.71,0-1.06,0A51.34,51.34,0,0,1,193.71,368a.49.49,0,0,1-.25-.59l1.82-5.75c-2,1.74-5.74,4.41-8.28,3-3.61-2-1-8-.88-8.24,2.47-9.86,7.21-28.84,7.32-29.51,0-.3.13-.93,11.19-6.31a.42.42,0,0,1,.24-.05l14.46.77a.39.39,0,0,1,.18,0c2,.89,8.52,3.89,9.22,5.09s3,13.25,3.41,15.66c1.07,3.52,3.5,10.7,5,12.3.6.66,1.14,1.16,1.57,1.56,1,.91,1.62,1.51,1.62,2.7,0,1.71-2,4-4.49,5.07-2.08.92-6.64-1.65-8.66-2.91l1,6.86a.49.49,0,0,1-.23.49C227.6,368.34,220.84,372.47,213.15,372.47Zm-18.6-5.2a50.78,50.78,0,0,0,17.59,4.17c7,.35,13.53-3.16,15-4l-1.1-7.61a.51.51,0,0,1,.22-.5.5.5,0,0,1,.55,0c2.51,1.69,7.07,4.12,8.63,3.43,2.3-1,3.89-3,3.89-4.16,0-.72-.33-1.07-1.3-2-.44-.41-1-.93-1.63-1.62-2-2.17-5-12.3-5.18-12.73-1-5.57-2.85-14.62-3.3-15.4s-4.69-2.84-8.69-4.64L205,321.53c-4,2-9.84,4.94-10.54,5.62-.45,2.05-6.62,26.68-7.34,29.56-.06.14-2.4,5.48.42,7.05,2.39,1.34,6.93-2.53,8.48-4.13a.5.5,0,0,1,.62-.08.51.51,0,0,1,.22.58Z" style="fill:#263238"></path><path d="M196.33,360.48h-.08a.5.5,0,0,1-.41-.58l3.64-21.46-1.85-5.65a.51.51,0,0,1,.32-.63.52.52,0,0,1,.64.32l1.88,5.76a.65.65,0,0,1,0,.24l-3.67,21.59A.5.5,0,0,1,196.33,360.48Z" style="fill:#263238"></path><path d="M226.48,360.28a.5.5,0,0,1-.5-.46l-1.35-21.62a.88.88,0,0,1,0-.17l1.33-4.54a.5.5,0,0,1,.62-.34.49.49,0,0,1,.34.62l-1.3,4.45L227,359.75a.49.49,0,0,1-.47.53Z" style="fill:#263238"></path><path d="M212.58,367.47a68.33,68.33,0,0,1-17.94-2.36.5.5,0,1,1,.29-.95c.17,0,16.34,4.88,32.17.44a.5.5,0,1,1,.27,1A55.08,55.08,0,0,1,212.58,367.47Z" style="fill:#263238"></path><path d="M74.31,349.48a32.57,32.57,0,0,0-3.59.95c-.63.32-.74,1.59-1.59,2.12s-2.11,1.27-1.37,1.8,2.28.92,3-.12a5.22,5.22,0,0,1,3-1.81" style="fill:#fff"></path><path d="M69.42,355.38a3.51,3.51,0,0,1-2-.63A.9.9,0,0,1,67,354c0-.71.88-1.24,1.71-1.76l.12-.08a2.4,2.4,0,0,0,.72-1A2.27,2.27,0,0,1,70.5,350a29.3,29.3,0,0,1,3.71-1,.5.5,0,0,1,.59.39.49.49,0,0,1-.38.59,28.56,28.56,0,0,0-3.48.91,2,2,0,0,0-.46.69A3.17,3.17,0,0,1,69.4,353l-.12.08a5.52,5.52,0,0,0-1.21.9c.58.38,1.78.73,2.33,0,.77-1.05,2.91-2.24,3.57-2a.49.49,0,0,1,.28.65.51.51,0,0,1-.56.31,5.36,5.36,0,0,0-2.48,1.6A2.12,2.12,0,0,1,69.42,355.38Z" style="fill:#263238"></path><path d="M181.77,364a3.69,3.69,0,0,1-1.79-.59,5.82,5.82,0,0,0-2.31-.86c-.6-.14-.4-.67.46-1a5.45,5.45,0,0,1,3.25.13,4.2,4.2,0,0,1,1.19.73Z" style="fill:#fff"></path><path d="M181.77,364.51h0a4.13,4.13,0,0,1-2.07-.7,4.94,4.94,0,0,0-2-.73l-.15,0a.84.84,0,0,1-.74-.73c0-.47.39-.93,1.13-1.22a5.94,5.94,0,0,1,3.62.14,4.33,4.33,0,0,1,1.35.84.52.52,0,0,1,.1.58l-.8,1.59A.49.49,0,0,1,181.77,364.51Zm-3.69-2.38a5.57,5.57,0,0,1,2.22.9,2.86,2.86,0,0,0,1.18.45l.46-.92a3.7,3.7,0,0,0-.76-.4,4.93,4.93,0,0,0-2.87-.13Z" style="fill:#263238"></path><rect x="142.74" y="353.73" width="182.3" height="8.42" style="fill:#60A5FA"></rect><path d="M325,362.65H142.74a.5.5,0,0,1-.5-.5v-8.42a.5.5,0,0,1,.5-.5H325a.5.5,0,0,1,.5.5v8.42A.5.5,0,0,1,325,362.65Zm-181.79-1H324.53v-7.42H143.24Z" style="fill:#263238"></path><path d="M109.9,320.11a37.84,37.84,0,1,0,37.83,37.83A37.84,37.84,0,0,0,109.9,320.11Zm0,65.77a27.94,27.94,0,1,1,27.93-27.94A27.94,27.94,0,0,1,109.9,385.88Z" style="fill:#60A5FA"></path><path d="M109.9,396.28a38.34,38.34,0,1,1,38.33-38.34A38.38,38.38,0,0,1,109.9,396.28Zm0-75.67a37.34,37.34,0,1,0,37.33,37.33A37.38,37.38,0,0,0,109.9,320.61Zm0,65.77a28.44,28.44,0,1,1,28.43-28.44A28.47,28.47,0,0,1,109.9,386.38Zm0-55.87a27.44,27.44,0,1,0,27.43,27.43A27.46,27.46,0,0,0,109.9,330.51Z" style="fill:#263238"></path><path d="M292.26,353.73v39.49H300c0-.07,0-.14,0-.22a9.17,9.17,0,1,1,18.34,0c0,.08,0,.15,0,.22H325V353.73Z" style="fill:#60A5FA"></path><path d="M325,393.72h-6.69a.48.48,0,0,1-.36-.15.5.5,0,0,1-.14-.36v-.12a8.67,8.67,0,1,0-17.33-.09v.21a.46.46,0,0,1-.14.36.48.48,0,0,1-.36.15h-7.76a.5.5,0,0,1-.5-.5V353.73a.5.5,0,0,1,.5-.5H325a.5.5,0,0,1,.5.5v39.49A.5.5,0,0,1,325,393.72Zm-6.18-1h5.68V354.23H292.76v38.49h6.76a9.67,9.67,0,0,1,19.33,0Z" style="fill:#263238"></path><path d="M249.65,353.73V376.4h4.45v-.13a5.26,5.26,0,1,1,10.52,0v.13h3.84V353.73Z" style="fill:#60A5FA"></path><path d="M268.46,376.9h-3.84a.51.51,0,0,1-.36-.15.5.5,0,0,1-.14-.37l.5-.11h-.5a4.76,4.76,0,1,0-9.52,0c0,.28-.22.63-.5.63h-4.45a.5.5,0,0,1-.5-.5V353.73a.5.5,0,0,1,.5-.5h18.81a.5.5,0,0,1,.5.5V376.4A.5.5,0,0,1,268.46,376.9Zm-3.35-1H268V354.23H250.15V375.9h3.46a5.76,5.76,0,0,1,11.5,0Z" style="fill:#263238"></path><path d="M218.07,291.21s2.63-2.15,1.43-4.3-6.45-5.33-8.6-4.54-6.37,5.26-6.69,6.93,3,4,3.66,4.07S213.93,290.26,218.07,291.21Z" style="fill:#263238"></path><path d="M207.9,293.87h-.09a8.07,8.07,0,0,1-3.47-2.66,2.56,2.56,0,0,1-.62-2c.36-1.9,4.75-6.47,7-7.3,2.45-.92,8,2.52,9.21,4.76,1.38,2.49-1.43,4.83-1.56,4.93a.46.46,0,0,1-.42.1c-2.9-.67-6.54.84-8.5,1.64A5.36,5.36,0,0,1,207.9,293.87Zm3.8-11.12a2,2,0,0,0-.63.09c-2,.76-6.1,5.12-6.37,6.56-.24,1.27,2.7,3.36,3.24,3.47.09,0,.64-.25,1.14-.45,2-.83,5.69-2.35,8.84-1.75.52-.49,2-2.05,1.15-3.51C218.05,285.33,213.85,282.75,211.7,282.75Z" style="fill:#263238"></path><path d="M212.89,290.5s-8.6,2.39-11,7-2.55,5.65-1.2,7.88,4.7,6.22,7.81,7.81,13-.72,13-.72,3-1.35,4-3.74,3.1-5.74,1.67-9.32-7.81-8.52-9.8-9.08A9.52,9.52,0,0,0,212.89,290.5Z" style="fill:#263238"></path><path d="M212,314.25a8.58,8.58,0,0,1-3.7-.61c-3.16-1.62-6.58-5.64-8-8-1.55-2.54-1.16-3.86,1.18-8.37,2.45-4.75,10.9-7.15,11.29-7.26a10,10,0,0,1,4.74-.16c2.25.63,8.66,5.71,10.12,9.37,1.27,3.17-.05,6.08-1.11,8.41-.2.45-.4.88-.56,1.28-1,2.55-4.11,4-4.24,4A50.8,50.8,0,0,1,212,314.25Zm3.66-23.62A10.49,10.49,0,0,0,213,291h0c-.09,0-8.43,2.39-10.69,6.76-2.41,4.66-2.39,5.45-1.21,7.39,1.36,2.25,4.62,6.09,7.61,7.62,2.41,1.24,9.94-.13,12.64-.75h0s2.77-1.29,3.63-3.45c.17-.41.37-.85.58-1.32,1-2.16,2.2-4.85,1.09-7.63-1.38-3.47-7.69-8.28-9.46-8.78A6,6,0,0,0,215.64,290.63Zm-2.75-.13h0Z" style="fill:#263238"></path><path d="M219.15,296.54s-4.29,2.64-6.49,4.18a21.54,21.54,0,0,1-4.84,2.42,2.86,2.86,0,0,0-1.54,3.19c.44,2.31,1.27,10.29,1.27,10.29l-1.49,3.24,6.38,7,5.06-6.6.55-3.41s4.62-2.86,4.73-3.52S224.21,303,224.1,302,219.15,296.54,219.15,296.54Z" style="fill:#fff"></path><path d="M212.44,327.4a.52.52,0,0,1-.37-.16l-6.38-7a.5.5,0,0,1-.08-.55l1.43-3.11c-.11-1.07-.85-8-1.25-10.11a3.35,3.35,0,0,1,1.83-3.75,21.11,21.11,0,0,0,4.76-2.37c2.18-1.53,6.47-4.17,6.51-4.19a.48.48,0,0,1,.6.06c1.5,1.39,5,4.75,5.11,5.81s-1.26,11.05-1.32,11.46c0,.22-.15.87-4.77,3.75l-.51,3.18a.67.67,0,0,1-.1.23l-5.06,6.6a.47.47,0,0,1-.38.19Zm-5.79-7.63,5.76,6.35,4.62-6,.53-3.29a.48.48,0,0,1,.23-.34,26.75,26.75,0,0,0,4.52-3.25c.11-.71,1.39-10.25,1.3-11.12-.13-.54-2.39-2.92-4.52-4.93-1,.64-4.33,2.69-6.14,4a22,22,0,0,1-5,2.49,2.35,2.35,0,0,0-1.21,2.62c.44,2.3,1.25,10,1.28,10.33a.46.46,0,0,1,0,.26Z" style="fill:#263238"></path><path d="M218.71,310a.52.52,0,0,1-.49-.37.52.52,0,0,1,.35-.62,5.87,5.87,0,0,0,2-.93c0-.23-.61-1-.82-1.31-.36-.44-.54-.66-.54-.94s.2-2.16.24-2.52a.52.52,0,0,1,.56-.45.51.51,0,0,1,.44.56c-.09.74-.21,1.95-.24,2.32l.31.4c.63.77,1.57,1.94.72,2.69a7.22,7.22,0,0,1-2.35,1.15Z" style="fill:#263238"></path><path d="M218.35,312.16a3.51,3.51,0,0,1-2.32-1.32.5.5,0,0,1,0-.71.51.51,0,0,1,.71,0c1.08,1.14,1.69,1.07,1.83.95a.49.49,0,0,1,.7,0,.5.5,0,0,1,0,.71,1.28,1.28,0,0,1-.93.38Z" style="fill:#263238"></path><path d="M218.05,316.89a8,8,0,0,1-2.53-.66c-.72-.48-2.79-2.08-2.79-2.08l4.06,7,.71-.86Z" style="fill:#263238"></path><path d="M216.79,321.66h0a.47.47,0,0,1-.39-.25l-4.06-7a.5.5,0,0,1,.74-.65s2.06,1.59,2.76,2.05a6.87,6.87,0,0,0,2.3.59.48.48,0,0,1,.35.19.52.52,0,0,1,.1.38l-.55,3.41a.66.66,0,0,1-.11.24l-.71.86A.5.5,0,0,1,216.79,321.66ZM214.4,316l2.47,4.25.16-.2.45-2.77a6.54,6.54,0,0,1-2.24-.68C215,316.51,214.74,316.29,214.4,316Z" style="fill:#263238"></path><path d="M208.67,305.23s-1.51-4.54-3.27-2,1,6.14,2.39,6.06" style="fill:#fff"></path><path d="M207.75,309.8c-1,0-2.09-1.13-2.7-2.2A4.28,4.28,0,0,1,205,303a1.79,1.79,0,0,1,1.71-1c1.41.2,2.28,2.61,2.44,3.1a.5.5,0,0,1-.31.63.5.5,0,0,1-.63-.32c-.32-.93-1-2.34-1.64-2.42-.27,0-.55.28-.74.56a3.42,3.42,0,0,0,.11,3.58c.63,1.12,1.47,1.69,1.83,1.69a.5.5,0,1,1,.06,1Z" style="fill:#263238"></path><ellipse cx="215.96" cy="304.99" rx="0.68" ry="0.96" style="fill:#263238"></ellipse><ellipse cx="221.93" cy="304.99" rx="0.68" ry="0.96" style="fill:#263238"></ellipse><path d="M214.17,303.42a.51.51,0,0,1-.36-.15.5.5,0,0,1,0-.7,3.27,3.27,0,0,1,3.95-.4.5.5,0,0,1-.5.87,2.26,2.26,0,0,0-2.74.24A.49.49,0,0,1,214.17,303.42Z" style="fill:#263238"></path><path d="M223.25,303.74a.51.51,0,0,1-.49-.36.8.8,0,0,0-.42-.56,2.3,2.3,0,0,0-1.54.09.5.5,0,0,1-.37-.93,3.28,3.28,0,0,1,2.35-.06,1.87,1.87,0,0,1,.95,1.18.5.5,0,0,1-.35.62A.3.3,0,0,1,223.25,303.74Z" style="fill:#263238"></path><polygon points="206.04 317.42 211.62 324.51 207.79 328.65 203.49 320.92 206.04 317.42" style="fill:#fff"></polygon><path d="M207.79,329.15h-.06a.5.5,0,0,1-.37-.26l-4.3-7.72a.48.48,0,0,1,0-.54l2.55-3.5a.49.49,0,0,1,.79,0L212,324.2a.5.5,0,0,1,0,.65L208.16,329A.51.51,0,0,1,207.79,329.15ZM204.08,321l3.81,6.84,3.07-3.32-4.9-6.23Z" style="fill:#263238"></path><polygon points="211.62 324.51 212.44 326.9 210.5 325.94 211.62 324.51" style="fill:#fff"></polygon><path d="M212.44,327.4a.44.44,0,0,1-.22,0l-1.94-1a.55.55,0,0,1-.27-.34.47.47,0,0,1,.1-.41l1.11-1.44a.52.52,0,0,1,.48-.18.49.49,0,0,1,.39.33l.82,2.39a.5.5,0,0,1-.14.54A.5.5,0,0,1,212.44,327.4Zm-1.17-1.63.3.15-.13-.38Z" style="fill:#263238"></path><polygon points="213.61 323.31 216.32 328.65 220.46 321.64 217.67 319.41 213.61 323.31" style="fill:#fff"></polygon><path d="M216.32,329.15h0a.51.51,0,0,1-.43-.27l-2.71-5.34a.5.5,0,0,1,.1-.59l4.06-3.9a.5.5,0,0,1,.66,0l2.79,2.23a.52.52,0,0,1,.12.65l-4.14,7A.5.5,0,0,1,216.32,329.15Zm-2.1-5.73,2.13,4.19,3.46-5.85-2.11-1.68Z" style="fill:#263238"></path><polygon points="213.61 323.31 212.44 326.9 214.4 324.99 213.61 323.31" style="fill:#fff"></polygon><path d="M212.44,327.4a.48.48,0,0,1-.26-.07.49.49,0,0,1-.21-.58l1.16-3.59a.52.52,0,0,1,.45-.35.49.49,0,0,1,.48.29l.8,1.67a.49.49,0,0,1-.11.57l-2,1.92A.52.52,0,0,1,212.44,327.4Zm1.26-2.74-.16.47.26-.25Z" style="fill:#263238"></path><path d="M182.06,360s-1.13,3.21-.82,3.65,1.42,1,1.72,0,.6-3.4.21-4.07S182.06,360,182.06,360Z" style="fill:#fff"></path><path d="M182.27,364.75a1.93,1.93,0,0,1-1.43-.78c-.13-.18-.47-.65.74-4.11l0-.1c.14-.21.62-.9,1.23-.9h0a.86.86,0,0,1,.72.46c.54.9.12,3.52-.15,4.46a1.2,1.2,0,0,1-1,1Zm.24-4.5a12.64,12.64,0,0,0-.82,3.23,1.11,1.11,0,0,0,.62.27c.07,0,.13-.1.17-.24a9.33,9.33,0,0,0,.3-3.57A1.4,1.4,0,0,0,182.51,360.25Z" style="fill:#263238"></path><path d="M183.84,361s-1.12,3.21-.81,3.66,1.42,1,1.72,0,.6-3.41.2-4.07S183.84,361,183.84,361Z" style="fill:#fff"></path><path d="M184.06,365.74a2,2,0,0,1-1.43-.77c-.13-.18-.47-.66.74-4.12a.47.47,0,0,1,0-.1c.14-.21.62-.89,1.22-.89h0a.83.83,0,0,1,.73.45c.54.9.12,3.52-.15,4.47a1.2,1.2,0,0,1-1,.94A.75.75,0,0,1,184.06,365.74Zm.24-4.49a12.6,12.6,0,0,0-.82,3.22.94.94,0,0,0,.62.27c.07,0,.13-.09.17-.24a9.52,9.52,0,0,0,.3-3.57A1.75,1.75,0,0,0,184.3,361.25Z" style="fill:#263238"></path><path d="M186.16,360.89s-1.12,3.21-.81,3.65,1.42,1,1.72,0,.6-3.4.2-4.06S186.16,360.89,186.16,360.89Z" style="fill:#fff"></path><path d="M186.38,365.61a2,2,0,0,1-1.44-.78c-.12-.17-.46-.65.75-4.11a.31.31,0,0,1,.05-.1c.14-.21.62-.89,1.22-.89h0a.83.83,0,0,1,.73.45c.54.9.12,3.52-.15,4.46a1.21,1.21,0,0,1-1,.95Zm.23-4.5a12.93,12.93,0,0,0-.81,3.23,1.11,1.11,0,0,0,.62.27c.07,0,.13-.1.17-.24a9.53,9.53,0,0,0,.3-3.57A1.73,1.73,0,0,0,186.61,361.11Z" style="fill:#263238"></path><path d="M188,361.46s-.86,2.73-.62,3.1,1.08.87,1.31,0a7.92,7.92,0,0,0,.15-3.45C188.55,360.52,188,361.46,188,361.46Z" style="fill:#fff"></path><path d="M188.18,365.54a1.54,1.54,0,0,1-1.21-.71c-.11-.17-.36-.57.56-3.52l0-.1c.14-.24.53-.81,1.05-.81h0a.74.74,0,0,1,.66.44c.45.83,0,3.21-.11,3.81a1,1,0,0,1-.85.88Zm.29-3.87a12.11,12.11,0,0,0-.62,2.71.81.81,0,0,0,.32.16h0s0,0,0-.13a10.29,10.29,0,0,0,.27-2.76Z" style="fill:#263238"></path><path d="M73,355.13s-3.39-.64-3.69-.13-.47,2.07.62,2.2,3.39-.08,3.87-.75S73,355.13,73,355.13Z" style="fill:#fff"></path><path d="M70.57,357.73a5.38,5.38,0,0,1-.75,0,1.35,1.35,0,0,1-1.1-.76,2.57,2.57,0,0,1,.1-2.18c.14-.23.48-.82,4.22-.11l.13,0c.16.09,1,.52,1.16,1.2a1.07,1.07,0,0,1-.17.86C73.61,357.5,71.78,357.73,70.57,357.73Zm-.92-2.39a1.55,1.55,0,0,0,0,1.14.36.36,0,0,0,.32.22c1.22.14,3.13-.17,3.4-.54,0-.13-.25-.38-.56-.55A11,11,0,0,0,69.65,355.34Z" style="fill:#263238"></path><path d="M72.63,357.68s-3.38-.65-3.69-.13-.46,2.07.63,2.19,3.38-.07,3.87-.75S72.63,357.68,72.63,357.68Z" style="fill:#fff"></path><path d="M70.26,360.28a7.37,7.37,0,0,1-.75,0,1.38,1.38,0,0,1-1.1-.77,2.54,2.54,0,0,1,.1-2.18c.13-.22.48-.81,4.22-.1l.13,0a2.25,2.25,0,0,1,1.15,1.2,1,1,0,0,1-.17.85C73.3,360.05,71.47,360.28,70.26,360.28Zm-.93-2.4a1.68,1.68,0,0,0,0,1.15.38.38,0,0,0,.32.22c1.23.13,3.14-.17,3.41-.55,0-.12-.26-.38-.56-.54A11.58,11.58,0,0,0,69.33,357.88Z" style="fill:#263238"></path><path d="M73.55,360.62s-3.38-.64-3.69-.13-.46,2.07.63,2.2,3.38-.08,3.87-.75S73.55,360.62,73.55,360.62Z" style="fill:#fff"></path><path d="M71.18,363.22c-.29,0-.55,0-.75,0a1.38,1.38,0,0,1-1.1-.77,2.58,2.58,0,0,1,.1-2.18c.13-.22.49-.82,4.22-.11l.13,0c.16.09,1,.53,1.15,1.2a1,1,0,0,1-.17.86C74.22,363,72.39,363.22,71.18,363.22Zm-.93-2.39a1.65,1.65,0,0,0,0,1.14.38.38,0,0,0,.33.22c1.22.14,3.13-.16,3.4-.54,0-.13-.28-.4-.56-.55A11,11,0,0,0,70.25,360.83Z" style="fill:#263238"></path><path d="M73.65,363.14s-2.84-.42-3.1,0-.44,1.59.47,1.66,2.86-.13,3.28-.66S73.65,363.14,73.65,363.14Z" style="fill:#fff"></path><path d="M71.39,365.3l-.41,0a1.16,1.16,0,0,1-1-.66,2,2,0,0,1,.16-1.78c.13-.2.44-.66,3.59-.2l.13,0c.2.08.88.41,1,1a.9.9,0,0,1-.18.78C74.14,365.12,72.35,365.3,71.39,365.3Zm-.47-1.82a1,1,0,0,0,0,.7s0,.1.19.11a6.46,6.46,0,0,0,2.8-.43,1.42,1.42,0,0,0-.35-.24A11.12,11.12,0,0,0,70.92,363.48Zm-.07,0Z" style="fill:#263238"></path><path d="M240.83,360s1.12,3.21.81,3.65-1.42,1-1.72,0-.6-3.4-.2-4.07S240.83,360,240.83,360Z" style="fill:#fff"></path><path d="M240.61,364.75l-.21,0a1.21,1.21,0,0,1-1-1c-.27-.94-.69-3.56-.15-4.46a.86.86,0,0,1,.72-.46h0c.6,0,1.08.69,1.22.9l.05.1c1.21,3.46.87,3.93.74,4.11A1.93,1.93,0,0,1,240.61,364.75Zm-.51-4.81a9.48,9.48,0,0,0,.3,3.57c0,.14.1.22.17.24a1,1,0,0,0,.66-.36,16.89,16.89,0,0,0-.86-3.14A1.67,1.67,0,0,0,240.1,359.94Z" style="fill:#263238"></path><path d="M239,361s1.12,3.21.81,3.66-1.42,1-1.72,0-.6-3.41-.2-4.07S239,361,239,361Z" style="fill:#fff"></path><path d="M238.82,365.74a.75.75,0,0,1-.21,0,1.2,1.2,0,0,1-1-.94c-.27-.95-.69-3.57-.15-4.47a.83.83,0,0,1,.73-.45c.58,0,1.09.68,1.23.89a.47.47,0,0,1,0,.1c1.21,3.46.87,3.94.75,4.12A2,2,0,0,1,238.82,365.74Zm-.51-4.81a9.45,9.45,0,0,0,.3,3.57c0,.15.1.23.17.24a.88.88,0,0,0,.66-.35,17.21,17.21,0,0,0-.85-3.14A1.78,1.78,0,0,0,238.31,360.93Z" style="fill:#263238"></path><path d="M236.72,360.89s1.13,3.21.81,3.65-1.42,1-1.72,0-.6-3.4-.2-4.06S236.72,360.89,236.72,360.89Z" style="fill:#fff"></path><path d="M236.5,365.61l-.21,0a1.21,1.21,0,0,1-1-.95c-.27-.94-.69-3.56-.15-4.46a.83.83,0,0,1,.73-.45h0c.6,0,1.08.68,1.22.89a.31.31,0,0,1,.05.1c1.21,3.46.87,3.94.75,4.11A2,2,0,0,1,236.5,365.61Zm-.5-4.81a9.44,9.44,0,0,0,.29,3.57c.05.14.1.22.17.24a1,1,0,0,0,.66-.36,17.42,17.42,0,0,0-.85-3.14A2.86,2.86,0,0,0,236,360.8Z" style="fill:#263238"></path><path d="M234.87,361.46s.86,2.73.62,3.1-1.08.87-1.3,0a7.79,7.79,0,0,1-.16-3.45C234.33,360.52,234.87,361.46,234.87,361.46Z" style="fill:#fff"></path><path d="M234.7,365.54h-.15a1,1,0,0,1-.85-.88c-.15-.6-.55-3-.11-3.81a.74.74,0,0,1,.67-.44h0c.51,0,.9.57,1,.81l0,.1c.93,2.95.67,3.35.56,3.52A1.54,1.54,0,0,1,234.7,365.54Zm-.3-3.89a10.26,10.26,0,0,0,.27,2.76.38.38,0,0,0,.06.15.8.8,0,0,0,.34-.27,18.59,18.59,0,0,0-.66-2.62Z" style="fill:#263238"></path><path d="M155.53,367.89a.5.5,0,0,1-.49-.39l-1.13-5.17a.5.5,0,0,1,1-.21l1.14,5.16a.5.5,0,0,1-.38.6Z" style="fill:#263238"></path><path d="M163.51,365.41l6.44-.92,3-2.59s1.09-3.43,1.26-3.85a.79.79,0,0,0-1-1c-.83.25-1.08,1.5-1.08,1.5s-.67-2.34-1.34-1.83a1.88,1.88,0,0,0-.75,1.17s-1.09-1.34-1.59-.92a3.34,3.34,0,0,0-.67,1.67s-1.26-1-1.67-.42,0,1.59,0,1.59l.5,2-.84.16-3.51.17" style="fill:#fff"></path><path d="M163.51,365.91a.5.5,0,0,1-.07-1l6.3-.9,2.79-2.41c.22-.69,1.07-3.35,1.22-3.74a.35.35,0,0,0-.08-.3s-.1-.11-.31,0c-.44.13-.69.87-.74,1.12a.5.5,0,0,1-1,0,4.9,4.9,0,0,0-.67-1.49,1.4,1.4,0,0,0-.45.75.5.5,0,0,1-.88.25,2.75,2.75,0,0,0-1-.82,4,4,0,0,0-.41,1.33.48.48,0,0,1-.31.39.49.49,0,0,1-.49-.07,2.1,2.1,0,0,0-1-.49c-.15.24,0,.83.1,1.08l.52,2.08a.46.46,0,0,1-.06.38.49.49,0,0,1-.33.23l-.83.16-3.59.18a.49.49,0,0,1-.52-.48.51.51,0,0,1,.47-.52l3.77-.22-.38-1.5a2.28,2.28,0,0,1,.08-2,.9.9,0,0,1,.64-.38,2,2,0,0,1,1.1.27,2.58,2.58,0,0,1,.69-1.24.86.86,0,0,1,.64-.19,2.21,2.21,0,0,1,1.1.59,2.71,2.71,0,0,1,.62-.67.81.81,0,0,1,.75-.12,2,2,0,0,1,.93,1.05,1.72,1.72,0,0,1,.9-.67,1.26,1.26,0,0,1,1.34.33,1.33,1.33,0,0,1,.27,1.34c-.13.33-.94,2.86-1.24,3.81a.51.51,0,0,1-.15.23l-3,2.59a.57.57,0,0,1-.26.12l-6.44.92Z" style="fill:#263238"></path><path d="M170,365a.52.52,0,0,1-.35-.14.5.5,0,0,1,0-.71,14.85,14.85,0,0,0,.74-3.29c-.08-.23-.72-2.57-.79-2.83a.51.51,0,0,1,.36-.62.5.5,0,0,1,.61.36c.28,1,.71,2.64.78,2.84a10.71,10.71,0,0,1-1,4.25A.54.54,0,0,1,170,365Z" style="fill:#263238"></path><path d="M172.52,362.57a.47.47,0,0,1-.17,0,.5.5,0,0,1-.29-.65,7.33,7.33,0,0,0-.41-3.18.5.5,0,0,1,.95-.31c.09.28.83,2.7.39,3.85A.49.49,0,0,1,172.52,362.57Z" style="fill:#263238"></path><path d="M168.45,364.89a.5.5,0,0,1-.44-.73,12.35,12.35,0,0,0,.38-3.19l-1.06-2.11a.51.51,0,0,1,.22-.67.5.5,0,0,1,.67.22l1.12,2.22a.6.6,0,0,1,0,.24,13.12,13.12,0,0,1-.49,3.76A.5.5,0,0,1,168.45,364.89Z" style="fill:#263238"></path><path d="M166.66,363.39a.51.51,0,0,1-.5-.47l0-1.08a.49.49,0,0,1,.47-.52.49.49,0,0,1,.53.47l0,1.08a.49.49,0,0,1-.47.52Z" style="fill:#263238"></path><path d="M162.45,364.84a.49.49,0,0,1-.41-.21,2,2,0,0,1,.22-2.69.5.5,0,0,1,.71,0,.51.51,0,0,1,0,.71,1,1,0,0,0-.07,1.38.5.5,0,0,1-.12.69A.52.52,0,0,1,162.45,364.84Z" style="fill:#263238"></path></g></svg>