<svg xmlns="http://www.w3.org/2000/svg" xmlns:xlink="http://www.w3.org/1999/xlink" viewBox="0 0 500 500"><defs><clipPath id="freepik--clip-path--inject-115"><path d="M303.82,377.84S296.5,370.09,292.2,363s-9.91-14.64-11.63-15.93a33.5,33.5,0,0,0-8.82-4.3c-3.45-1.08-6.68-5.38-7.54-4.09a3.7,3.7,0,0,0,1.08,4.52c1.29.86,5.16,3.23,5.16,3.23s-6.24,1.07-8.39,1.07-8.39-6.46-9.47-4.95c-.41.57-.23,1.46.24,2.42-.52-.26-.89-.23-.89.38,0,2.15,4.09,7.32,6.89,9.26a9.33,9.33,0,0,0,1.66.94,11.12,11.12,0,0,0,2.86,3.58,11.75,11.75,0,0,0,4.61,1.75c5.8,2.15,13.47,4.7,13.47,4.7l8.4,17.22h16.79Z" style="fill:#fff;stroke:#263238;stroke-linecap:round;stroke-linejoin:round"></path></clipPath><clipPath id="freepik--clip-path-2--inject-115"><path d="M371.62,290.48s21.31,19.81,21.74,22-12.91,72.32-12.91,72.32h-87s15.93-22.17,15.93-25.18,9.25-46.71,9.47-49.08,22.81-11.62,29.27-14.85S360.64,288.55,371.62,290.48Z" style="fill:#60A5FA;stroke:#263238;stroke-linecap:round;stroke-linejoin:round"></path></clipPath><clipPath id="freepik--clip-path-3--inject-115"><path d="M335.7,235.57s-4.46,6.11-5.59,9.05-1.81,27.59,0,32.34,6.1,8.14,11.3,9.5c0,0,2.49,14.25.68,19.45s-6.33,15.15-4.52,14,28.55-24.09,30.31-28c.9-2-.23-16.51-.23-16.51s2.72-12.67,2.26-16.06-3.84-6.11-5.88-4.53a24.21,24.21,0,0,0-3.62,3.62s-4.29-2.48-2.26-6.1,7.69-6.79,5.66-11.54-5.21-6.11-10-4.75S338.64,239.64,335.7,235.57Z" style="fill:#fff;stroke:#263238;stroke-linecap:round;stroke-linejoin:round"></path></clipPath><clipPath id="freepik--clip-path-4--inject-115"><path d="M385.4,309.42s-8,3.23-9.26,6-18.29,65.22-18.29,65.22-.43,3.45,3.87,3.66,30.35,0,30.35,0,2.15-43.69,1.94-50.8-.43-20-1.51-21.09" style="fill:#60A5FA;stroke:#263238;stroke-linecap:round;stroke-linejoin:round"></path></clipPath><clipPath id="freepik--clip-path-5--inject-115"><path d="M355.38,354.75s-22.19-19-25.9-25.12-4.6-9.9-7.25-12.49-6.53-4.74-9.31-6.87-2.7,2-1.8,3.38a20.38,20.38,0,0,0,3.89,3.47l1.55,2.56s-10-2.37-12-2.24-10.76-.27-12.15,1.73,1.86,1.85,2.78,2.13,3.72,0,5.74.29,7.06,1.58,7.06,1.58-13.39,2.17-15.09,2.47-2.41,2.4-1.16,3.27,5.35.57,5.35.57,6.37,3.9,7.76,4.31,4.58,1.15,4.58,1.15,9.45,4,12.59,5.63,9.89,11.36,13.37,16.21,8.37,11.41,11.6,14.77,5.4,5.81,5.4,5.81l7.68-19.51Z" style="fill:#fff;stroke:#263238;stroke-linecap:round;stroke-linejoin:round"></path></clipPath><clipPath id="freepik--clip-path-6--inject-115"><path d="M138.05,283.14s-36.76,13.7-42.52,17.54S84,311.25,84,320.38s5.29,61.51,5.29,61.51H212.05s-15.37-54.06-20.42-65.35c-2.82-6.31-5.65-13.32-10.42-18.47-6.24-6.73-15.4-10.81-24.14-13.19a50.89,50.89,0,0,0-9.89-1.46C144.62,283.22,140.51,282.23,138.05,283.14Z" style="fill:#60A5FA;stroke:#263238;stroke-linecap:round;stroke-linejoin:round"></path></clipPath><clipPath id="freepik--clip-path-7--inject-115"><path d="M131.81,274.25s1.68,13,1.44,14.42,0,10.57,6.72,14.41,13.94,2.17,17.3-2.88.48-26.43.48-26.43S142.86,281.22,131.81,274.25Z" style="fill:#fff;stroke:#263238;stroke-linecap:round;stroke-linejoin:round"></path></clipPath><clipPath id="freepik--clip-path-8--inject-115"><rect x="124.84" y="218.99" width="40.12" height="61.75" rx="15.95" transform="translate(-28.02 18.5) rotate(-6.66)" style="fill:#fff;stroke:#263238;stroke-linecap:round;stroke-linejoin:round"></rect></clipPath><clipPath id="freepik--clip-path-9--inject-115"><path d="M192.83,370.6c-6-1.44-14.17-1-19-1.2s-35.56-2.89-42.76-5-18.5-4.08-18.5-4.08l-3.13-20.19c-13.39-5.28-21.15.25-23.87,2.87,1.55,17.77,3.69,38.94,3.69,38.94H197.21l3.07-.24S198.84,372,192.83,370.6Z" style="fill:#fff;stroke:#263238;stroke-linecap:round;stroke-linejoin:round"></path></clipPath></defs><g id="freepik--background-simple--inject-115"><path d="M424.61,385.69c2.82-10.56,12-46,18.27-81.95,7.45-42.88,14-102-15.84-126.73s-69,4.76-89.46-4.76-21.43-57.18-76.4-71.47-85.73,35.26-110,61.94S100,171.29,64.57,199.88c-35,28.27-5.32,156.29,20.58,185.81Z" style="fill:#60A5FA"></path><path d="M424.61,385.69c2.82-10.56,12-46,18.27-81.95,7.45-42.88,14-102-15.84-126.73s-69,4.76-89.46-4.76-21.43-57.18-76.4-71.47-85.73,35.26-110,61.94S100,171.29,64.57,199.88c-35,28.27-5.32,156.29,20.58,185.81Z" style="fill:#fff;opacity:0.8"></path></g><g id="freepik--Plants--inject-115"><path d="M444.94,326.53s.78-2.86.8-3c.31-2.17-.39-6.53-2.59-7.59a2.9,2.9,0,0,0-3.95,1.74c-.59,1.63.16,3.62,1.05,5C441.29,324.23,444.93,326.52,444.94,326.53Z" style="fill:#60A5FA"></path><path d="M401.45,325.58c1.75.77,6.05.67,6.06.67s-.93-2.81-1-3c-.94-2-3.93-5.24-6.35-4.91a2.9,2.9,0,0,0-2.33,3.63C398.22,323.68,400,324.93,401.45,325.58Z" style="fill:#60A5FA"></path><path d="M408.12,316.86l0,0c-.1.69-.19,1.43-.28,2.25-.15,1.5-.3,3.2-.35,5.06a53.84,53.84,0,0,0,.15,6,38.41,38.41,0,0,0,1.11,6.63l0,.08c-.39-.61-1.52-2.27-1.63-2.38-1.43-1.66-5.16-4-7.42-3.05a2.89,2.89,0,0,0-1.28,4.11c.83,1.52,2.82,2.27,4.44,2.5,1.82.27,5.66-.84,6-.93a51.35,51.35,0,0,0,2.32,6.44c.53,1.22,1.1,2.43,1.69,3.64-.35-.51-.67-1-.72-1-1.43-1.66-5.17-4-7.43-3.06a2.9,2.9,0,0,0-1.28,4.12c.83,1.52,2.83,2.27,4.44,2.5s4.93-.64,5.8-.89l.69,1.39c1.11,2.21,2.23,4.42,3.26,6.61.36.77.69,1.55,1,2.32-.31-.45-.57-.83-.62-.89-1.43-1.65-5.17-4-7.42-3.05a2.9,2.9,0,0,0-1.29,4.12c.84,1.52,2.83,2.27,4.45,2.5s4.61-.56,5.64-.85c.32.81.63,1.61.91,2.4.17.55.37,1.06.51,1.62s.31,1.09.46,1.63c.25,1.05.52,2.12.74,3.15.15.71.29,1.4.43,2.08-.35-.77-1.07-2.27-1.15-2.39-1.16-1.85-4.5-4.74-6.88-4.14a2.9,2.9,0,0,0-1.89,3.88c.6,1.62,2.45,2.66,4,3.14,1.73.53,5.53,0,6,0,.23,1.14.44,2.25.62,3.3.58,3.3,1,6.11,1.21,8.2h1.65c-.3-2.13-.75-5-1.43-8.47-.23-1.15-.5-2.38-.78-3.65a31,31,0,0,0,3.35-1.57,21.13,21.13,0,0,0,4.88,3.15c-.44,1.07-.87,2.11-1.3,3.09-1.32,3-2.54,5.58-3.49,7.45h1.81c.85-1.82,1.9-4.15,3-6.89.45-1.09.91-2.26,1.36-3.47.46.1,4.24.86,6,.47,1.6-.36,3.53-1.26,4.24-2.84a2.91,2.91,0,0,0-1.6-4c-2.32-.78-5.87,1.86-7.17,3.62-.07.11-.78,1.32-1.21,2.1.18-.49.37-1,.55-1.48.37-1,.71-2,1.08-3.13.16-.53.33-1.07.49-1.62s.29-1.13.44-1.7c.31-1.32.57-2.68.79-4.06.89.33,4,1.43,5.69,1.31s3.67-.71,4.61-2.16a2.9,2.9,0,0,0-1-4.21c-2.18-1.12-6.08.95-7.63,2.5-.1.09-1.09,1.32-1.62,2,.13-.83.27-1.65.37-2.49.3-2.43.53-4.9.77-7.36l.24-2.26c.31.12,4,1.51,5.87,1.38,1.63-.11,3.68-.71,4.62-2.16a2.89,2.89,0,0,0-1-4.2c-2.18-1.13-6.08.94-7.63,2.49-.12.11-1.54,1.89-1.88,2.36.18-1.66.37-3.31.62-4.92a52.56,52.56,0,0,1,1.41-6.47c.15.05,4,1.52,5.91,1.39,1.63-.12,3.67-.71,4.62-2.16a2.91,2.91,0,0,0-1-4.21c-2.17-1.12-6.08.95-7.63,2.49-.1.1-1.18,1.46-1.68,2.11l-.12-.06a37.55,37.55,0,0,1,2.56-6.15c.56-1.09,1.15-2.1,1.75-3.07.7.35,3.9,1.9,5.6,2s3.73-.31,4.83-1.64A2.91,2.91,0,0,0,455,323c-2-1.35-6.15.28-7.86,1.64-.09.07-.95.93-1.57,1.57.28-.44.55-.89.83-1.3,1-1.54,2.06-2.89,3-4.08.53-.67,1-1.27,1.49-1.82.86,0,4.33-.12,5.85-.83s3.17-2,3.52-3.69a2.9,2.9,0,0,0-2.42-3.57c-2.44-.26-5.33,3.08-6.22,5.08-.08.17-1,3-.92,3h.05c-.46.52-.95,1.09-1.47,1.72-1,1.17-2,2.5-3.08,4a51.49,51.49,0,0,0-3.2,5.09A37.87,37.87,0,0,0,440.2,336a.31.31,0,0,1,0,.08c0-.72,0-2.73,0-2.88-.28-2.17-2.1-6.2-4.51-6.64a2.89,2.89,0,0,0-3.34,2.72c-.14,1.73,1.11,3.45,2.33,4.54s5.19,2.42,5.49,2.51A51.65,51.65,0,0,0,438.5,343c-.24,1.31-.43,2.64-.61,4,0-.62,0-1.17,0-1.25-.28-2.17-2.1-6.19-4.51-6.64A2.9,2.9,0,0,0,430,341.8c-.14,1.72,1.11,3.45,2.32,4.53s4.47,2.19,5.33,2.46c-.06.51-.13,1-.19,1.54-.29,2.45-.58,4.91-.93,7.31-.12.84-.27,1.67-.42,2.5,0-.55,0-1,0-1.09-.28-2.16-2.1-6.19-4.51-6.64a2.89,2.89,0,0,0-3.34,2.73c-.15,1.72,1.1,3.45,2.32,4.54s4.16,2.07,5.18,2.4c-.18.85-.36,1.69-.57,2.5-.16.55-.27,1.1-.46,1.64s-.35,1.08-.52,1.61c-.37,1-.74,2.06-1.12,3-.27.69-.53,1.33-.79,2,.13-.84.36-2.49.36-2.63a11.25,11.25,0,0,0-1.51-5.47,3.55,3.55,0,0,0,0-.65,2.89,2.89,0,0,0-3.54-2.45c-2.37.63-3.87,4.78-4,7,0,.12.07,1.53.14,2.42-.12-.52-.23-1-.36-1.55-.25-1-.52-2.08-.82-3.2-.16-.53-.32-1.07-.49-1.62s-.38-1.1-.57-1.66c-.47-1.28-1-2.55-1.58-3.82.92-.22,4.16-1.05,5.47-2.05s2.67-2.62,2.65-4.35a2.9,2.9,0,0,0-3.13-3c-2.43.27-4.55,4.15-5,6.29,0,.13-.17,1.71-.23,2.57-.35-.76-.69-1.52-1.07-2.28-1.09-2.19-2.26-4.38-3.42-6.56l-1.05-2c.33-.08,4.21-1,5.66-2.1s2.68-2.62,2.66-4.35a2.88,2.88,0,0,0-3.13-3c-2.43.26-4.55,4.14-5,6.28,0,.16-.24,2.43-.26,3-.77-1.47-1.52-2.95-2.2-4.44a51.55,51.55,0,0,1-2.39-6.17c.15,0,4.2-1,5.7-2.1,1.29-1,2.67-2.63,2.65-4.35a2.89,2.89,0,0,0-3.13-3c-2.43.26-4.55,4.14-5,6.28,0,.14-.18,1.87-.24,2.69l-.14,0a36.9,36.9,0,0,1-1.24-6.55c-.14-1.21-.2-2.38-.24-3.52.77-.1,4.29-.57,5.75-1.45s3-2.31,3.12-4a2.89,2.89,0,0,0-2.78-3.29c-2.45,0-5,3.61-5.65,5.7,0,.11-.29,1.3-.45,2.17,0-.51,0-1.05,0-1.54,0-1.85.12-3.55.24-5.05.07-.85.16-1.62.24-2.34.71-.49,3.54-2.49,4.41-3.92s1.55-3.41.92-5a2.91,2.91,0,0,0-4-1.64c-2.17,1.12-2.74,5.5-2.38,7.66C407.26,314,408.08,316.89,408.12,316.86Z" style="fill:#60A5FA"></path><path d="M438.74,273.06s.78-2.86.81-3.05c.3-2.16-.39-6.53-2.6-7.59a2.89,2.89,0,0,0-3.94,1.74c-.59,1.63.16,3.62,1,5C435.1,270.76,438.74,273.06,438.74,273.06Z" style="fill:#60A5FA"></path><path d="M395.25,272.11c1.76.77,6.06.67,6.06.67s-.93-2.81-1-3c-.94-2-3.92-5.23-6.35-4.91a2.91,2.91,0,0,0-2.33,3.64C392,270.21,393.75,271.46,395.25,272.11Z" style="fill:#60A5FA"></path><path d="M401.92,263.39l0,0c-.09.69-.19,1.44-.28,2.25-.14,1.5-.3,3.2-.34,5.06a51.33,51.33,0,0,0,.14,6,38.25,38.25,0,0,0,1.11,6.63l0,.08c-.39-.61-1.52-2.26-1.62-2.38-1.43-1.65-5.17-4-7.43-3.05a2.9,2.9,0,0,0-1.28,4.12c.83,1.51,2.83,2.26,4.44,2.5,1.83.26,5.66-.85,6-.94a51.35,51.35,0,0,0,2.32,6.44c.53,1.22,1.1,2.44,1.69,3.65-.35-.52-.67-1-.72-1-1.43-1.66-5.17-4-7.42-3.05a2.9,2.9,0,0,0-1.29,4.12c.84,1.51,2.83,2.26,4.45,2.5s4.93-.65,5.79-.89l.69,1.38c1.11,2.22,2.23,4.42,3.26,6.61.36.78.69,1.55,1,2.33-.31-.46-.58-.84-.63-.89-1.43-1.66-5.17-4-7.42-3.06a2.9,2.9,0,0,0-1.28,4.12c.83,1.52,2.82,2.27,4.44,2.5s4.61-.56,5.64-.84c.32.8.64,1.6.91,2.4.17.54.37,1.05.52,1.61l.45,1.63c.25,1,.52,2.13.74,3.15.16.72.29,1.4.43,2.09-.35-.78-1.07-2.28-1.15-2.4-1.16-1.85-4.5-4.74-6.87-4.14a2.91,2.91,0,0,0-1.9,3.88c.6,1.62,2.45,2.67,4,3.14,1.72.53,5.53.05,6,0,.23,1.14.44,2.25.62,3.3.59,3.3,1,6.12,1.21,8.21h1.65c-.3-2.13-.75-5-1.43-8.47-.23-1.16-.49-2.39-.78-3.65a34.1,34.1,0,0,0,3.35-1.58,21.34,21.34,0,0,0,4.88,3.15c-.43,1.07-.87,2.12-1.3,3.09-1.32,3-2.54,5.58-3.48,7.46h1.8c.86-1.83,1.9-4.16,3-6.89.45-1.09.91-2.27,1.37-3.48.46.1,4.23.87,6,.47,1.6-.36,3.53-1.26,4.24-2.84a2.89,2.89,0,0,0-1.6-4c-2.32-.78-5.86,1.85-7.16,3.61-.08.11-.79,1.33-1.22,2.1.19-.49.37-1,.56-1.48.37-1,.71-2,1.08-3.13q.24-.8.48-1.62c.17-.54.29-1.13.44-1.69.31-1.33.57-2.69.8-4.06.88.32,4,1.42,5.68,1.3s3.67-.71,4.62-2.16a2.9,2.9,0,0,0-1-4.2c-2.18-1.13-6.08.94-7.63,2.49-.1.09-1.08,1.33-1.61,2,.13-.82.26-1.65.37-2.49.3-2.43.53-4.9.77-7.36.07-.75.15-1.5.23-2.25.31.11,4,1.5,5.88,1.37,1.63-.11,3.67-.71,4.61-2.16a2.89,2.89,0,0,0-1-4.2c-2.18-1.12-6.08,1-7.63,2.49-.12.11-1.54,1.89-1.88,2.36.18-1.66.37-3.3.62-4.92a52.56,52.56,0,0,1,1.41-6.47c.15.06,4,1.52,5.91,1.39,1.63-.11,3.68-.71,4.62-2.16a2.9,2.9,0,0,0-1-4.2c-2.18-1.13-6.08.94-7.63,2.49-.11.1-1.19,1.45-1.69,2.1l-.12-.06a36.6,36.6,0,0,1,2.57-6.14c.55-1.09,1.15-2.1,1.75-3.08.69.35,3.89,1.9,5.59,2s3.73-.3,4.83-1.64a2.9,2.9,0,0,0-.51-4.28c-2-1.36-6.14.27-7.86,1.63l-1.57,1.57c.28-.43.56-.89.83-1.3,1-1.54,2.06-2.89,3-4.08.53-.67,1-1.27,1.5-1.82.86,0,4.32-.12,5.84-.83s3.17-2,3.53-3.68a2.9,2.9,0,0,0-2.43-3.57c-2.43-.27-5.33,3.07-6.22,5.07-.08.17-1,3-.92,3h.05c-.46.52-1,1.09-1.47,1.72-.95,1.17-2,2.5-3.08,4a51.49,51.49,0,0,0-3.2,5.09,38.24,38.24,0,0,0-2.72,6.14l0,.08c0-.72,0-2.73,0-2.88-.28-2.17-2.09-6.2-4.5-6.64a2.9,2.9,0,0,0-3.35,2.72c-.14,1.73,1.11,3.45,2.33,4.54s5.19,2.42,5.49,2.51a51.8,51.8,0,0,0-1.61,6.66c-.23,1.31-.43,2.63-.61,4,0-.62,0-1.18,0-1.26-.28-2.17-2.1-6.19-4.51-6.64a2.9,2.9,0,0,0-3.34,2.73c-.14,1.72,1.11,3.45,2.33,4.54s4.47,2.18,5.32,2.45c-.06.52-.13,1-.19,1.54-.29,2.46-.57,4.91-.93,7.31-.12.85-.27,1.67-.42,2.5,0-.55,0-1,0-1.08-.28-2.17-2.1-6.2-4.51-6.64a2.89,2.89,0,0,0-3.34,2.72c-.14,1.73,1.11,3.45,2.32,4.54s4.16,2.08,5.18,2.41c-.18.84-.36,1.69-.57,2.5-.16.55-.27,1.09-.46,1.63s-.35,1.08-.52,1.61c-.37,1-.74,2.06-1.12,3-.26.68-.53,1.32-.79,2,.13-.84.36-2.49.36-2.63a11.14,11.14,0,0,0-1.51-5.47,2.72,2.72,0,0,0,0-.64,2.9,2.9,0,0,0-3.54-2.46c-2.37.63-3.87,4.78-4,7,0,.13.07,1.53.14,2.42-.12-.52-.23-1-.36-1.55-.24-1-.52-2.08-.82-3.2-.16-.53-.32-1.07-.49-1.62s-.38-1.1-.57-1.65c-.47-1.28-1-2.56-1.57-3.83.91-.22,4.16-1,5.46-2s2.67-2.63,2.66-4.36a2.9,2.9,0,0,0-3.14-3c-2.43.26-4.54,4.14-5,6.28,0,.14-.17,1.71-.23,2.57-.35-.76-.69-1.52-1.07-2.28-1.09-2.19-2.26-4.38-3.41-6.56q-.54-1-1.05-2c.32-.08,4.2-1,5.66-2.09,1.29-1,2.67-2.63,2.66-4.35a2.91,2.91,0,0,0-3.14-3c-2.43.26-4.54,4.14-5,6.28,0,.17-.23,2.43-.26,3-.76-1.48-1.52-3-2.2-4.45a51.55,51.55,0,0,1-2.39-6.17c.15,0,4.2-1,5.7-2.1,1.29-1,2.67-2.62,2.66-4.35a2.9,2.9,0,0,0-3.13-3c-2.44.26-4.55,4.14-5,6.29,0,.14-.18,1.86-.24,2.68l-.14,0a37.9,37.9,0,0,1-1.24-6.54c-.14-1.22-.2-2.39-.24-3.53.77-.09,4.3-.56,5.75-1.45s2.95-2.31,3.13-4a2.9,2.9,0,0,0-2.79-3.29c-2.45,0-5,3.62-5.65,5.7,0,.11-.28,1.3-.45,2.17,0-.51,0-1,0-1.54,0-1.85.12-3.55.23-5.05.08-.85.16-1.62.24-2.34.71-.49,3.54-2.49,4.42-3.92s1.54-3.4.91-5a2.9,2.9,0,0,0-4-1.64c-2.18,1.12-2.75,5.5-2.39,7.66C401.06,260.56,401.88,263.42,401.92,263.39Z" style="fill:#60A5FA"></path></g><g id="freepik--character-2--inject-115"><path d="M368.45,284.56h62.44s5.77,1,3.85,12.49-11.53,85-11.53,85H336.27l18.94-93.49S356,283.6,368.45,284.56Z" style="fill:#fff;stroke:#263238;stroke-linecap:round;stroke-linejoin:round"></path><path d="M434.74,297.05c-1.92,11.53-11.53,85-11.53,85H411.84c2.56-17.4,12.11-81.86,13.77-89.33s4.37-8.12,5.1-8.17h.18S436.66,285.52,434.74,297.05Z" style="fill:#263238;stroke:#263238;stroke-linecap:round;stroke-linejoin:round"></path><polygon points="300.38 372.89 313.29 351.37 311.78 383.01 296.93 382.79 300.38 372.89" style="fill:#60A5FA;stroke:#263238;stroke-linecap:round;stroke-linejoin:round"></polygon><path d="M297.79,372H303c1.72,0,1.29,1.72,1.94,5.17s-5.82,5.81-5.82,5.81,1.51,0-1.07.43S292.63,375.91,297.79,372Z" style="fill:#fff;stroke:#263238;stroke-linecap:round;stroke-linejoin:round"></path><path d="M303.82,377.84S296.5,370.09,292.2,363s-9.91-14.64-11.63-15.93a33.5,33.5,0,0,0-8.82-4.3c-3.45-1.08-6.68-5.38-7.54-4.09a3.7,3.7,0,0,0,1.08,4.52c1.29.86,5.16,3.23,5.16,3.23s-6.24,1.07-8.39,1.07-8.39-6.46-9.47-4.95c-.41.57-.23,1.46.24,2.42-.52-.26-.89-.23-.89.38,0,2.15,4.09,7.32,6.89,9.26a9.33,9.33,0,0,0,1.66.94,11.12,11.12,0,0,0,2.86,3.58,11.75,11.75,0,0,0,4.61,1.75c5.8,2.15,13.47,4.7,13.47,4.7l8.4,17.22h16.79Z" style="fill:#fff"></path><g style="clip-path:url(#freepik--clip-path--inject-115)"><path d="M303.82,377.84S296.5,370.09,292.2,363s-9.91-14.64-11.63-15.93a33.5,33.5,0,0,0-8.82-4.3c-3.45-1.08-6.68-5.38-7.54-4.09a3.7,3.7,0,0,0,1.08,4.52c1.29.86,5.16,3.23,5.16,3.23s-6.24,1.07-8.39,1.07-8.39-6.46-9.47-4.95c-.41.57-.23,1.46.24,2.42-.52-.26-.89-.23-.89.38,0,2.15,4.09,7.32,6.89,9.26a9.33,9.33,0,0,0,1.66.94,11.12,11.12,0,0,0,2.86,3.58,11.75,11.75,0,0,0,4.61,1.75c5.8,2.15,13.47,4.7,13.47,4.7l8.4,17.22h16.79Z" style="fill:#60A5FA"></path><path d="M303.82,377.84S296.5,370.09,292.2,363s-9.91-14.64-11.63-15.93a33.5,33.5,0,0,0-8.82-4.3c-3.45-1.08-6.68-5.38-7.54-4.09a3.7,3.7,0,0,0,1.08,4.52c1.29.86,5.16,3.23,5.16,3.23s-6.24,1.07-8.39,1.07-8.39-6.46-9.47-4.95c-.41.57-.23,1.46.24,2.42-.52-.26-.89-.23-.89.38,0,2.15,4.09,7.32,6.89,9.26a9.33,9.33,0,0,0,1.66.94,11.12,11.12,0,0,0,2.86,3.58,11.75,11.75,0,0,0,4.61,1.75c5.8,2.15,13.47,4.7,13.47,4.7l8.4,17.22h16.79Z" style="fill:#fff;opacity:0.5"></path></g><path d="M303.82,377.84S296.5,370.09,292.2,363s-9.91-14.64-11.63-15.93a33.5,33.5,0,0,0-8.82-4.3c-3.45-1.08-6.68-5.38-7.54-4.09a3.7,3.7,0,0,0,1.08,4.52c1.29.86,5.16,3.23,5.16,3.23s-6.24,1.07-8.39,1.07-8.39-6.46-9.47-4.95c-.41.57-.23,1.46.24,2.42-.52-.26-.89-.23-.89.38,0,2.15,4.09,7.32,6.89,9.26a9.33,9.33,0,0,0,1.66.94,11.12,11.12,0,0,0,2.86,3.58,11.75,11.75,0,0,0,4.61,1.75c5.8,2.15,13.47,4.7,13.47,4.7l8.4,17.22h16.79Z" style="fill:none;stroke:#263238;stroke-linecap:round;stroke-linejoin:round"></path><path d="M270.45,346.42s1.3,3.87,2.16,5.59,3.87,2.16,3.87,2.16" style="fill:none;stroke:#263238;stroke-linecap:round;stroke-linejoin:round"></path><path d="M272.61,355.89s6.89-1.94,8.61-1.08a7.62,7.62,0,0,1,2.8,3" style="fill:none;stroke:#263238;stroke-linecap:round;stroke-linejoin:round"></path><path d="M258,348.68c-1.15-1-6-5.12-6-3.34" style="fill:none;stroke:#263238;stroke-linecap:round;stroke-linejoin:round"></path><path d="M263.35,359.12c-2.37-1.73-3.35-5.84-4.64-8s-.86-4.09,1.29-2.37c.49.39,1.26,1.1,2.17,2" style="fill:none;stroke:#263238;stroke-linecap:round;stroke-linejoin:round"></path><path d="M271,356.08s-6.37-4.13-7.53-4.73c-.69-.36-3.45-.86-1.94,1.29a54.76,54.76,0,0,0,5.81,6l2.37,1.93,1.92,1.55" style="fill:none;stroke:#263238;stroke-linecap:round;stroke-linejoin:round"></path><path d="M371.62,290.48s21.31,19.81,21.74,22-12.91,72.32-12.91,72.32h-87s15.93-22.17,15.93-25.18,9.25-46.71,9.47-49.08,22.81-11.62,29.27-14.85S360.64,288.55,371.62,290.48Z" style="fill:#60A5FA"></path><g style="clip-path:url(#freepik--clip-path-2--inject-115)"><path d="M369.36,340.5l-16.21,15.77s7.45-17.52,9.2-21-36.79,13.57-37.67,9.63S337,303.71,337,303.71l-2.86-1.65c-7.58,3.46-15.08,7.08-15.2,8.44-.22,2.37-9.47,46.06-9.47,49.08s-15.93,25.18-15.93,25.18H365.6Z" style="opacity:0.2"></path></g><path d="M371.62,290.48s21.31,19.81,21.74,22-12.91,72.32-12.91,72.32h-87s15.93-22.17,15.93-25.18,9.25-46.71,9.47-49.08,22.81-11.62,29.27-14.85S360.64,288.55,371.62,290.48Z" style="fill:none;stroke:#263238;stroke-linecap:round;stroke-linejoin:round"></path><ellipse cx="356.34" cy="245.52" rx="29.18" ry="28.05" style="fill:#263238;stroke:#263238;stroke-linecap:round;stroke-linejoin:round"></ellipse><polygon points="337.26 299.59 329.95 317.24 338.13 314.01 337.26 299.59" style="fill:#fff;stroke:#263238;stroke-linecap:round;stroke-linejoin:round"></polygon><polygon points="354.48 284.74 337.26 299.59 337.57 319.93 358.79 296.15 354.48 284.74" style="fill:#fff;stroke:#263238;stroke-linecap:round;stroke-linejoin:round"></polygon><path d="M335.7,235.57s-4.46,6.11-5.59,9.05-1.81,27.59,0,32.34,6.1,8.14,11.3,9.5c0,0,2.49,14.25.68,19.45s-6.33,15.15-4.52,14,28.55-24.09,30.31-28c.9-2-.23-16.51-.23-16.51s2.72-12.67,2.26-16.06-3.84-6.11-5.88-4.53a24.21,24.21,0,0,0-3.62,3.62s-4.29-2.48-2.26-6.1,7.69-6.79,5.66-11.54-5.21-6.11-10-4.75S338.64,239.64,335.7,235.57Z" style="fill:#fff"></path><g style="clip-path:url(#freepik--clip-path-3--inject-115)"><path d="M342.37,278.83c-5.35-4-3.22-4.58-3.22-4.58l-.46-6.8c-3,.22-3.38-1.12-2-3.34s1.67-8,1.67-8l-3,1.54a62.24,62.24,0,0,1,.37-10.24c.32-2.59,2.77-6.37,5.21-9.57-2.26-.2-4.17-.84-5.19-2.24,0,0-4.46,6.11-5.59,9.05s-1.81,27.59,0,32.34,6.1,8.14,11.3,9.5c0,0,2.49,14.25.68,19.45s-6.33,15.15-4.52,14c.22-.13.81-.59,1.66-1.29l15.18-35.13A27,27,0,0,1,342.37,278.83Z" style="fill:#60A5FA"></path><path d="M342.37,278.83c-5.35-4-3.22-4.58-3.22-4.58l-.46-6.8c-3,.22-3.38-1.12-2-3.34s1.67-8,1.67-8l-3,1.54a62.24,62.24,0,0,1,.37-10.24c.32-2.59,2.77-6.37,5.21-9.57-2.26-.2-4.17-.84-5.19-2.24,0,0-4.46,6.11-5.59,9.05s-1.81,27.59,0,32.34,6.1,8.14,11.3,9.5c0,0,2.49,14.25.68,19.45s-6.33,15.15-4.52,14c.22-.13.81-.59,1.66-1.29l15.18-35.13A27,27,0,0,1,342.37,278.83Z" style="fill:#fff;opacity:0.5"></path></g><path d="M335.7,235.57s-4.46,6.11-5.59,9.05-1.81,27.59,0,32.34,6.1,8.14,11.3,9.5c0,0,2.49,14.25.68,19.45s-6.33,15.15-4.52,14,28.55-24.09,30.31-28c.9-2-.23-16.51-.23-16.51s2.72-12.67,2.26-16.06-3.84-6.11-5.88-4.53a24.21,24.21,0,0,0-3.62,3.62s-4.29-2.48-2.26-6.1,7.69-6.79,5.66-11.54-5.21-6.11-10-4.75S338.64,239.64,335.7,235.57Z" style="fill:none;stroke:#263238;stroke-linecap:round;stroke-linejoin:round"></path><path d="M338.7,253.44l-.45,4.52-.23,1.58s-2.71,5.21-2.71,6.79,5.2,2.26,6.33.9" style="fill:none;stroke:#263238;stroke-linecap:round;stroke-linejoin:round"></path><path d="M336.44,273.34s5.43,2.49,8.59-2" style="fill:none;stroke:#263238;stroke-linecap:round;stroke-linejoin:round"></path><path d="M339.15,274.25s.23,3.84,2.94,3.39c3.25-.54,2.27-5.2,2.27-5.2A8.4,8.4,0,0,1,339.15,274.25Z" style="fill:#263238;stroke:#263238;stroke-linecap:round;stroke-linejoin:round"></path><path d="M344.81,251.85s5.65-.67,7.69,2" style="fill:none;stroke:#263238;stroke-linecap:round;stroke-linejoin:round;stroke-width:2px"></path><path d="M337.8,251.18s-5.88-1.13-7.69,1.58" style="fill:none;stroke:#263238;stroke-linecap:round;stroke-linejoin:round;stroke-width:2px"></path><ellipse cx="346.05" cy="258.3" rx="1.02" ry="1.92" style="fill:#263238"></ellipse><ellipse cx="334.29" cy="257.62" rx="1.02" ry="1.92" style="fill:#263238"></ellipse><path d="M341.41,286.46s9,1.29,15.44-5.6" style="fill:none;stroke:#263238;stroke-linecap:round;stroke-linejoin:round"></path><rect x="359.54" y="251.18" width="16.44" height="23.3" rx="6.24" transform="translate(29.45 -36.97) rotate(5.99)" style="fill:#fff;stroke:#263238;stroke-linecap:round;stroke-linejoin:round"></rect><rect x="365.2" y="248.16" width="7.94" height="19.21" rx="1.16" transform="translate(28.94 -37.15) rotate(5.99)" style="fill:#fff;stroke:#263238;stroke-linecap:round;stroke-linejoin:round"></rect><path d="M372.57,218.59a9.36,9.36,0,0,0-10.67-3.28l-6.44,2.19.88,0a30.41,30.41,0,0,1,6.23.65l.25-.09a6.3,6.3,0,0,1,8.53,6.58l-4.24,38.9a1.45,1.45,0,0,0,1.28,1.59h.16a1.45,1.45,0,0,0,1.43-1.29l4.23-38.9A9.27,9.27,0,0,0,372.57,218.59Z" style="fill:#263238"></path><polygon points="343.94 301.96 337.57 319.93 346.29 314.09 343.94 301.96" style="fill:#fff;stroke:#263238;stroke-linecap:round;stroke-linejoin:round"></polygon><polygon points="343.94 301.96 344.58 318.32 374.72 293.35 371.27 283.66 343.94 301.96" style="fill:#fff;stroke:#263238;stroke-linecap:round;stroke-linejoin:round"></polygon><path d="M385.4,309.42s-8,3.23-9.26,6-18.29,65.22-18.29,65.22-.43,3.45,3.87,3.66,30.35,0,30.35,0,2.15-43.69,1.94-50.8-.43-20-1.51-21.09" style="fill:#60A5FA"></path><g style="clip-path:url(#freepik--clip-path-4--inject-115)"><path d="M374.61,321.67l-4.82,26.72s6.57-5.26,13.14,0-.87,1.75-5.69,3.06-6.57,3.51-6.57,3.51,12.7,2.19,16.2,6.57,1.76,8.75-2.62,8.75-22.78-2.19-22.78-2.19Z" style="opacity:0.2"></path></g><path d="M385.4,309.42s-8,3.23-9.26,6-18.29,65.22-18.29,65.22-.43,3.45,3.87,3.66,30.35,0,30.35,0,2.15-43.69,1.94-50.8-.43-20-1.51-21.09" style="fill:none;stroke:#263238;stroke-linecap:round;stroke-linejoin:round"></path><path d="M355.38,354.75s-22.19-19-25.9-25.12-4.6-9.9-7.25-12.49-6.53-4.74-9.31-6.87-2.7,2-1.8,3.38a20.38,20.38,0,0,0,3.89,3.47l1.55,2.56s-10-2.37-12-2.24-10.76-.27-12.15,1.73,1.86,1.85,2.78,2.13,3.72,0,5.74.29,7.06,1.58,7.06,1.58-13.39,2.17-15.09,2.47-2.41,2.4-1.16,3.27,5.35.57,5.35.57,6.37,3.9,7.76,4.31,4.58,1.15,4.58,1.15,9.45,4,12.59,5.63,9.89,11.36,13.37,16.21,8.37,11.41,11.6,14.77,5.4,5.81,5.4,5.81l7.68-19.51Z" style="fill:#fff"></path><g style="clip-path:url(#freepik--clip-path-5--inject-115)"><path d="M349.72,374.43c2.64-2.69,5.25-5.41,6.47-6.68l.42-1.08c-2.07-2.24-14.83-16-22.48-22.45-8.34-7.05-14.75-19.56-22.45-22.45s-15.72-1.6-19.26-2.6c-1.39,2,1.86,1.85,2.78,2.13s3.72,0,5.74.29,7.06,1.58,7.06,1.58-13.39,2.17-15.09,2.47-2.41,2.4-1.16,3.27,5.35.57,5.35.57,6.37,3.9,7.76,4.31,4.58,1.15,4.58,1.15,9.45,4,12.59,5.63,9.89,11.36,13.37,16.21,8.37,11.41,11.6,14.77Z" style="fill:#60A5FA"></path><path d="M349.72,374.43c2.64-2.69,5.25-5.41,6.47-6.68l.42-1.08c-2.07-2.24-14.83-16-22.48-22.45-8.34-7.05-14.75-19.56-22.45-22.45s-15.72-1.6-19.26-2.6c-1.39,2,1.86,1.85,2.78,2.13s3.72,0,5.74.29,7.06,1.58,7.06,1.58-13.39,2.17-15.09,2.47-2.41,2.4-1.16,3.27,5.35.57,5.35.57,6.37,3.9,7.76,4.31,4.58,1.15,4.58,1.15,9.45,4,12.59,5.63,9.89,11.36,13.37,16.21,8.37,11.41,11.6,14.77Z" style="fill:#fff;opacity:0.5"></path></g><path d="M355.38,354.75s-22.19-19-25.9-25.12-4.6-9.9-7.25-12.49-6.53-4.74-9.31-6.87-2.7,2-1.8,3.38a20.38,20.38,0,0,0,3.89,3.47l1.55,2.56s-10-2.37-12-2.24-10.76-.27-12.15,1.73,1.86,1.85,2.78,2.13,3.72,0,5.74.29,7.06,1.58,7.06,1.58-13.39,2.17-15.09,2.47-2.41,2.4-1.16,3.27,5.35.57,5.35.57,6.37,3.9,7.76,4.31,4.58,1.15,4.58,1.15,9.45,4,12.59,5.63,9.89,11.36,13.37,16.21,8.37,11.41,11.6,14.77,5.4,5.81,5.4,5.81l7.68-19.51Z" style="fill:none;stroke:#263238;stroke-linecap:round;stroke-linejoin:round"></path><polyline points="297.1 329.49 304.03 329.13 309.67 330.09" style="fill:none;stroke:#263238;stroke-linecap:round;stroke-linejoin:round"></polyline><path d="M302.38,332.51a35.67,35.67,0,0,0,7,.83" style="fill:none;stroke:#263238;stroke-linecap:round;stroke-linejoin:round"></path><path d="M385.4,366.68s-25.83-14.85-27.12-14.85-12.49,23.68-11,24.75,11.41,7.54,11.41,7.54h33.36S396,376.15,385.4,366.68Z" style="fill:#60A5FA;stroke:#263238;stroke-linecap:round;stroke-linejoin:round"></path><path d="M356.77,351.18s-11.62,24.11-11.41,25.19,9.47,6.67,11.2,6.89,14.2-25.62,13.77-26.26-11.19-6.25-11.19-6.25S357,349.68,356.77,351.18Z" style="fill:#fff;stroke:#263238;stroke-linecap:round;stroke-linejoin:round"></path><path d="M297.25,318.24l-2.32-.23c-.41.09-.79.19-1.13.3C295.4,318.23,297.25,318.24,297.25,318.24Z" style="fill:#fff"></path></g><g id="freepik--character-1--inject-115"><path d="M124.36,284.56H61.92s-5.76,1-3.84,12.49,11.53,85,11.53,85h86.94l-19-93.49S136.85,283.6,124.36,284.56Z" style="fill:#fff;stroke:#263238;stroke-linecap:round;stroke-linejoin:round"></path><path d="M58.08,297.05c1.92,11.53,11.53,85,11.53,85H81c-2.57-17.4-12.11-81.86-13.77-89.33s-4.37-8.12-5.1-8.17h-.19S56.16,285.52,58.08,297.05Z" style="fill:#263238;stroke:#263238;stroke-linecap:round;stroke-linejoin:round"></path><path d="M138.05,283.14s-36.76,13.7-42.52,17.54S84,311.25,84,320.38s5.29,61.51,5.29,61.51H212.05s-15.37-54.06-20.42-65.35c-2.82-6.31-5.65-13.32-10.42-18.47-6.24-6.73-15.4-10.81-24.14-13.19a50.89,50.89,0,0,0-9.89-1.46C144.62,283.22,140.51,282.23,138.05,283.14Z" style="fill:#60A5FA"></path><g style="clip-path:url(#freepik--clip-path-6--inject-115)"><path d="M203.26,381.89c1.17-1.43,1.86-2.41,1.86-2.41l-22.78-64.82s6.14,29.78,7,32.41S195.48,362,178,364.15s-37.66-1.31-51.68-8.76-18-27.15-18-27.15l-.88,15.33-2,38.32Z" style="opacity:0.2"></path></g><path d="M138.05,283.14s-36.76,13.7-42.52,17.54S84,311.25,84,320.38s5.29,61.51,5.29,61.51H212.05s-15.37-54.06-20.42-65.35c-2.82-6.31-5.65-13.32-10.42-18.47-6.24-6.73-15.4-10.81-24.14-13.19a50.89,50.89,0,0,0-9.89-1.46C144.62,283.22,140.51,282.23,138.05,283.14Z" style="fill:none;stroke:#263238;stroke-linecap:round;stroke-linejoin:round"></path><ellipse cx="146.79" cy="295.83" rx="18.39" ry="14.72" style="fill:#fff;stroke:#263238;stroke-linecap:round;stroke-linejoin:round"></ellipse><path d="M122.2,246.62,121,233.85a15.17,15.17,0,0,1,14.17-16.54l11.48-.71A17.55,17.55,0,0,1,165,231.1l1.45,8.27" style="fill:none;stroke:#263238;stroke-linecap:round;stroke-linejoin:round;stroke-width:2px"></path><rect x="161.36" y="239.42" width="10.33" height="22.1" rx="4.05" transform="matrix(1, -0.09, 0.09, 1, -22.18, 16.25)" style="fill:#fff;stroke:#263238;stroke-linecap:round;stroke-linejoin:round"></rect><path d="M131.81,274.25s1.68,13,1.44,14.42,0,10.57,6.72,14.41,13.94,2.17,17.3-2.88.48-26.43.48-26.43S142.86,281.22,131.81,274.25Z" style="fill:#fff"></path><g style="clip-path:url(#freepik--clip-path-7--inject-115)"><path d="M158.69,283.55c-.34-5.32-.94-9.78-.94-9.78s-14.89,7.45-25.94.48c0,0,.82,6.34,1.23,10.65C138.5,288.14,147.47,290.64,158.69,283.55Z" style="fill:#60A5FA"></path><path d="M158.69,283.55c-.34-5.32-.94-9.78-.94-9.78s-14.89,7.45-25.94.48c0,0,.82,6.34,1.23,10.65C138.5,288.14,147.47,290.64,158.69,283.55Z" style="fill:#fff;opacity:0.5"></path></g><path d="M131.81,274.25s1.68,13,1.44,14.42,0,10.57,6.72,14.41,13.94,2.17,17.3-2.88.48-26.43.48-26.43S142.86,281.22,131.81,274.25Z" style="fill:none;stroke:#263238;stroke-linecap:round;stroke-linejoin:round"></path><rect x="124.84" y="218.99" width="40.12" height="61.75" rx="15.95" transform="translate(-28.02 18.5) rotate(-6.66)" style="fill:#fff"></rect><g style="clip-path:url(#freepik--clip-path-8--inject-115)"><path d="M140,281c-5.51-6.28-9.27-50.12-8-54.84.91-3.34,8.36-6.05,12.83-7.4l-8.2,1a15.33,15.33,0,0,0-13.44,17l3.61,30.89A15.3,15.3,0,0,0,140,281Z" style="fill:#60A5FA"></path><path d="M140,281c-5.51-6.28-9.27-50.12-8-54.84.91-3.34,8.36-6.05,12.83-7.4l-8.2,1a15.33,15.33,0,0,0-13.44,17l3.61,30.89A15.3,15.3,0,0,0,140,281Z" style="fill:#fff;opacity:0.5"></path></g><rect x="124.84" y="218.99" width="40.12" height="61.75" rx="15.95" transform="translate(-28.02 18.5) rotate(-6.66)" style="fill:none;stroke:#263238;stroke-linecap:round;stroke-linejoin:round"></rect><path d="M166.48,261.74,165.7,255c-.17,2.93-.88,6.55-3.38,6.27-4.17-.46-3.85-4.56-6.49-6.25s-8.41-1-12.73.72-3.37,7.69-6.49,9.85-6.49-2.88-6.49-2.88l-3.36-20.66s3.36-4.09,5-5.77-1.45-2.16-2.65-4.56,2.41-5.29,6.49-8.41,7.69,1,11,1,5.53-1.44,8.41-3.12l.16-.07a16.46,16.46,0,0,0-10.49-2.29l-6.92.81A16.56,16.56,0,0,0,123.32,238l3.31,28.39A16.58,16.58,0,0,0,145,280.94l6.92-.81A16.57,16.57,0,0,0,166.48,261.74Z" style="fill:#263238;stroke:#263238;stroke-linecap:round;stroke-linejoin:round"></path><path d="M144.3,259.12s3.6,3.36,10.57-.24" style="fill:none;stroke:#fff;stroke-linecap:round;stroke-linejoin:round"></path><path d="M152,239.9s1,9.85,1,11.77-3.61,5.05-7,.72" style="fill:none;stroke:#263238;stroke-linecap:round;stroke-linejoin:round"></path><path d="M147.18,238.22s-4.8-4.57-11.29,1.2" style="fill:none;stroke:#263238;stroke-linecap:round;stroke-linejoin:round;stroke-width:2px"></path><path d="M153.19,237.49s4.56-3.12,8.41-.48" style="fill:none;stroke:#263238;stroke-linecap:round;stroke-linejoin:round;stroke-width:2px"></path><path d="M145,244.46c0,1.06-.48,1.92-1.08,1.92s-1.08-.86-1.08-1.92.48-1.92,1.08-1.92S145,243.4,145,244.46Z" style="fill:#263238"></path><ellipse cx="157.63" cy="244.22" rx="1.08" ry="1.92" style="fill:#263238"></ellipse><rect x="118.35" y="244.46" width="10.33" height="22.1" rx="4.05" transform="translate(-29.67 16.6) rotate(-6.87)" style="fill:#fff;stroke:#263238;stroke-linecap:round;stroke-linejoin:round"></rect><path d="M192.83,370.6c-6-1.44-14.17-1-19-1.2s-35.56-2.89-42.76-5-18.5-4.08-18.5-4.08l-3.13-20.19c-13.39-5.28-21.15.25-23.87,2.87,1.55,17.77,3.69,38.94,3.69,38.94H197.21l3.07-.24S198.84,372,192.83,370.6Z" style="fill:#fff"></path><g style="clip-path:url(#freepik--clip-path-9--inject-115)"><path d="M96.5,375.1c-3.84-2.13-7-8.72-9.34-14.93,1.13,11.89,2.12,21.72,2.12,21.72H191c3.61-2.69,5.76-4.6,5.76-4.6S104.39,379.48,96.5,375.1Z" style="fill:#60A5FA"></path><path d="M96.5,375.1c-3.84-2.13-7-8.72-9.34-14.93,1.13,11.89,2.12,21.72,2.12,21.72H191c3.61-2.69,5.76-4.6,5.76-4.6S104.39,379.48,96.5,375.1Z" style="fill:#fff;opacity:0.5"></path></g><path d="M192.83,370.6c-6-1.44-14.17-1-19-1.2s-35.56-2.89-42.76-5-18.5-4.08-18.5-4.08l-3.13-20.19c-13.39-5.28-21.15.25-23.87,2.87,1.55,17.77,3.69,38.94,3.69,38.94H197.21l3.07-.24S198.84,372,192.83,370.6Z" style="fill:none;stroke:#263238;stroke-linecap:round;stroke-linejoin:round"></path><path d="M112.59,360.27s-8.28.2-11.47,6.29" style="fill:none;stroke:#263238;stroke-linecap:round;stroke-linejoin:round"></path><line x1="109.46" y1="340.08" x2="107.78" y2="322.31" style="fill:none;stroke:#263238;stroke-linecap:round;stroke-linejoin:round"></line></g><g id="freepik--Table--inject-115"><rect x="45.11" y="381.58" width="412.59" height="7.2" style="fill:#263238;stroke:#263238;stroke-linecap:round;stroke-linejoin:round"></rect></g></svg>