<svg xmlns="http://www.w3.org/2000/svg" viewBox="0 0 500 500"><g id="freepik--Letter--inject-40"><rect x="157.13" y="176.35" width="158.38" height="217.46" transform="translate(-57.44 59.64) rotate(-12.84)" style="fill:#60A5FA;stroke:#263238;stroke-miterlimit:10"></rect><rect x="160.73" y="181.3" width="151.18" height="207.58" transform="translate(-57.44 59.64) rotate(-12.84)" style="fill:#fff;stroke:#263238;stroke-linecap:round;stroke-linejoin:round"></rect><line x1="242.1" y1="195.84" x2="280.92" y2="186.13" style="fill:none;stroke:#263238;stroke-linecap:round;stroke-linejoin:round"></line><line x1="157.25" y1="217.05" x2="174.87" y2="212.65" style="fill:none;stroke:#263238;stroke-linecap:round;stroke-linejoin:round"></line><line x1="285" y1="227.9" x2="290.86" y2="226.44" style="fill:none;stroke:#263238;stroke-linecap:round;stroke-linejoin:round"></line><line x1="258.28" y1="234.58" x2="281.75" y2="228.71" style="fill:none;stroke:#263238;stroke-linecap:round;stroke-linejoin:round"></line><line x1="244.65" y1="237.99" x2="254.41" y2="235.55" style="fill:none;stroke:#263238;stroke-linecap:round;stroke-linejoin:round"></line><line x1="217" y1="244.9" x2="240.31" y2="239.07" style="fill:none;stroke:#263238;stroke-linecap:round;stroke-linejoin:round"></line><line x1="199.19" y1="249.36" x2="212.9" y2="245.93" style="fill:none;stroke:#263238;stroke-linecap:round;stroke-linejoin:round"></line><line x1="167.19" y1="257.36" x2="194.85" y2="250.44" style="fill:none;stroke:#263238;stroke-linecap:round;stroke-linejoin:round"></line><line x1="275.84" y1="243.58" x2="295.83" y2="238.58" style="fill:none;stroke:#263238;stroke-linecap:round;stroke-linejoin:round"></line><line x1="234.4" y1="253.94" x2="271.27" y2="244.72" style="fill:none;stroke:#263238;stroke-linecap:round;stroke-linejoin:round"></line><line x1="206.13" y1="261.01" x2="227.74" y2="255.61" style="fill:none;stroke:#263238;stroke-linecap:round;stroke-linejoin:round"></line><line x1="172.15" y1="269.5" x2="202.18" y2="262" style="fill:none;stroke:#263238;stroke-linecap:round;stroke-linejoin:round"></line><line x1="285.21" y1="255.04" x2="298.04" y2="251.83" style="fill:none;stroke:#263238;stroke-linecap:round;stroke-linejoin:round"></line><line x1="249.89" y1="263.87" x2="281.18" y2="256.05" style="fill:none;stroke:#263238;stroke-linecap:round;stroke-linejoin:round"></line><line x1="241.91" y1="265.87" x2="246.94" y2="264.61" style="fill:none;stroke:#263238;stroke-linecap:round;stroke-linejoin:round"></line><line x1="218.13" y1="271.81" x2="238.35" y2="266.76" style="fill:none;stroke:#263238;stroke-linecap:round;stroke-linejoin:round"></line><line x1="181.5" y1="280.97" x2="214.96" y2="272.6" style="fill:none;stroke:#263238;stroke-linecap:round;stroke-linejoin:round"></line><line x1="174.36" y1="282.75" x2="178.56" y2="281.71" style="fill:none;stroke:#263238;stroke-linecap:round;stroke-linejoin:round"></line><line x1="274.03" y1="271.23" x2="300.8" y2="264.53" style="fill:none;stroke:#263238;stroke-linecap:round;stroke-linejoin:round"></line><line x1="229.34" y1="282.4" x2="269.23" y2="272.43" style="fill:none;stroke:#263238;stroke-linecap:round;stroke-linejoin:round"></line><line x1="218.19" y1="285.19" x2="225.16" y2="283.44" style="fill:none;stroke:#263238;stroke-linecap:round;stroke-linejoin:round"></line><line x1="177.12" y1="295.45" x2="212.76" y2="286.54" style="fill:none;stroke:#263238;stroke-linecap:round;stroke-linejoin:round"></line><line x1="246.51" y1="291.5" x2="250.56" y2="290.48" style="fill:none;stroke:#263238;stroke-linecap:round;stroke-linejoin:round"></line><line x1="213.67" y1="299.71" x2="242.48" y2="292.5" style="fill:none;stroke:#263238;stroke-linecap:round;stroke-linejoin:round"></line><line x1="179.88" y1="308.15" x2="209.02" y2="300.87" style="fill:none;stroke:#263238;stroke-linecap:round;stroke-linejoin:round"></line></g><g id="freepik--hand-2--inject-40"><path d="M347.76,372.22c-1.09-13.05-9.24-42.4-20.11-46.21-6.73-2.35-23.73,4.81-35.7,10.62,1-4.43,1.69-8.83,1.69-8.83L260.3,293l.47,4.51,11.91,31.32s-4.66,5.17-3.63,7,7.77,3.1,7.77,3.1-2.07.52-.78,3.88a27.82,27.82,0,0,0,4.14,6.73l.36-.16a16.4,16.4,0,0,0,2.23,2c6.52,4.9,7.91,5.11,7.91,5.11s2.72-.55,3.81,13.59-3.27,19,3.8,27.72,59.25,68,59.25,68S348.85,385.27,347.76,372.22Z" style="opacity:0.2"></path><path d="M290.17,303.09s-6.41,7-11.65,10.48-8.89,8.11-4.07,10.47c2.89,1.42,7-.58,7-.58s-6.4,1.75-7.56,7.57,11.64,3.49,11.64,3.49-9.32,6.41-6.4,8.74,8.73.58,11.64.58,17.46-9.32,21-9.32,10.48,7.57,10.48,13.39,9.31,5.24,10.47-12.8-3.49-33.19-11.06-37.85S290.17,303.09,290.17,303.09Z" style="fill:#fff;stroke:#263238;stroke-linecap:round;stroke-linejoin:round"></path><path d="M286.67,322.88l23.24-8.68s10.2-2.22,17.52,9.84" style="fill:none;stroke:#263238;stroke-linecap:round;stroke-linejoin:round"></path><path d="M290.75,329.87l21-3.5s9.31-.58,15.13,10.48" style="fill:none;stroke:#263238;stroke-linecap:round;stroke-linejoin:round"></path><path d="M428.7,455.32c-12.81-12.27-67-59.39-67.51-62.58-.58-3.49-2.91-44.24-2.91-50.07s-11.64-19.79-11.64-19.79-4.78-6.85-7.11-18.49-13-16.43-18.84-15.85-21.79,2.32-28.19,7-12.23,10.48-6.41,12.22c9.67,2.9,25.5-10,33.13-1.08,3.49,4.08,7.62,22,8.21,24.37a7.49,7.49,0,0,1-2.19,6.76,67.54,67.54,0,0,1-8.88,6s-9.46,2.79-13.54,3.13-4.08,20,.34,25.81,10.87,32.61,16.3,39.41C324.64,418.66,371,488,371,488" style="fill:#fff;stroke:#263238;stroke-linecap:round;stroke-linejoin:round"></path><path d="M258,290.05a.53.53,0,0,1,.7-.07l2.81,1.26A1.08,1.08,0,1,1,260.3,293l-2.2-2.15a.54.54,0,0,1-.13-.75Z" style="fill:#263238;stroke:#263238;stroke-linecap:round;stroke-linejoin:round"></path><path d="M260.48,291.65a2.47,2.47,0,0,1,3.21-.34l7.46,3.85,73.23,48.18a5.79,5.79,0,1,1-6.61,9.5l-71.08-52.43-5.82-5.05a2.46,2.46,0,0,1-.61-3.43A1.51,1.51,0,0,1,260.48,291.65Z" style="fill:#60A5FA;stroke:#263238;stroke-linecap:round;stroke-linejoin:round"></path><path d="M344.38,343.34l-21.13-13.91a8,8,0,0,0-5.78,7.49,8.42,8.42,0,0,0,.08,1l20.22,14.91a5.79,5.79,0,1,0,6.61-9.5Z" style="fill:#263238;stroke:#263238;stroke-linecap:round;stroke-linejoin:round"></path><path d="M317.77,409.13c-23-26-19.17-40.36-22.67-45s-5.57-9-9.06-19.51-5.77-18.81-5.77-27.54,7.5-10.24,13.32-.93,12.88,23.63,12.88,23.63,4.65,5.82,14,4.08" style="fill:#fff;stroke:#263238;stroke-linecap:round;stroke-linejoin:round"></path><path d="M306.47,339.76S313,345.93,316,351" style="fill:none;stroke:#263238;stroke-linecap:round;stroke-linejoin:round"></path><path d="M287.57,313.41l1.94,3.89s-.44,0-3.54,1.78a12.67,12.67,0,0,0-4.54,4.38s-3-8.37-.34-11a4.26,4.26,0,0,1,2.42-1.26A4,4,0,0,1,287.57,313.41Z" style="fill:#fff;stroke:#263238;stroke-linecap:round;stroke-linejoin:round"></path><path d="M295.88,334.6l.94-.11" style="fill:none;stroke:#263238;stroke-linecap:round;stroke-linejoin:round"></path><path d="M287.16,339.43s.54-3.18,6.94-4.53" style="fill:none;stroke:#263238;stroke-linecap:round;stroke-linejoin:round"></path><path d="M294.13,337.19s-.45,1.34-4.94,3.14" style="fill:none;stroke:#263238;stroke-linecap:round;stroke-linejoin:round"></path><path d="M293.94,332.91a14.81,14.81,0,0,0-6.23,2.54" style="fill:none;stroke:#263238;stroke-linecap:round;stroke-linejoin:round"></path></g></svg>